<?xml version="1.0" encoding="utf-8"?>
<!-- Generator: Adobe Illustrator 17.0.0, SVG Export Plug-In . SVG Version: 6.00 Build 0)  -->
<!DOCTYPE svg PUBLIC "-//W3C//DTD SVG 1.1//EN" "http://www.w3.org/Graphics/SVG/1.1/DTD/svg11.dtd">
<svg version="1.1" id="Calque_1" xmlns="http://www.w3.org/2000/svg" xmlns:xlink="http://www.w3.org/1999/xlink" x="0px" y="0px"
	 width="143px" height="241px" viewBox="0 0 143 241" enable-background="new 0 0 143 241" xml:space="preserve">
<g>
	<rect x="28" y="49" fill="#F9BB44" width="35" height="15"/>
	<rect x="28" y="177" fill="#F9BB44" width="35" height="15"/>
	<rect x="68" y="177" fill="#F9BB44" width="35" height="15"/>
	<path fill="#F9BB44" d="M135.5,0H97.7c-4.206,0-7.5,3.294-7.5,7.5c0,10.19-8.655,18.8-18.9,18.8c-10.156,0-18.811-8.619-18.9-18.8
		c0-4.206-3.294-7.5-7.5-7.5H7.5C3.294,0,0,3.294,0,7.5v226c0,4.206,3.294,7.5,7.5,7.5H45c4.136,0,7.5-3.364,7.5-7.479
		c0.088-10.673,8.17-18.721,18.8-18.721c10.687,0,18.812,8.048,18.9,18.7c0,4.065,3.435,7.5,7.5,7.5h37.8c4.206,0,7.5-3.294,7.5-7.5
		V7.5C143,3.294,139.706,0,135.5,0z M128,64v113h-20v15h20v34h-23.637c-3.434-15.247-16.969-26.1-32.963-26.1
		S41.871,210.753,38.437,226H15v-34h8v-15h-8V64h8V49h-8V15h23.357C41.934,30.134,55.735,41.3,71.3,41.3s29.366-11.166,32.942-26.3
		H128v34h-20v15H128z"/>
	<path fill="#F9BB44" d="M91.6,120.5c0-2.247-1.047-4.46-2.871-5.979L64.162,95.548c-1.314-1.051-2.89-1.607-4.557-1.607
		c-1.179,0-2.331,0.277-3.37,0.797C53.663,95.949,52,98.603,52,101.5v38c0,2.789,1.583,5.359,4.129,6.709l0.187,0.089
		C57.373,146.751,58.503,147,59.5,147c1.519,0,3.112-0.504,4.486-1.42l24.814-19.159C90.553,124.96,91.6,122.747,91.6,120.5z
		 M71.809,120.5L67,124.212v-7.424L71.809,120.5z"/>
	<rect x="68" y="49" fill="#F9BB44" width="35" height="15"/>
</g>
</svg>
