<?xml version="1.0" encoding="utf-8"?>
<!-- Generator: Adobe Illustrator 17.0.0, SVG Export Plug-In . SVG Version: 6.00 Build 0)  -->
<!DOCTYPE svg PUBLIC "-//W3C//DTD SVG 1.1//EN" "http://www.w3.org/Graphics/SVG/1.1/DTD/svg11.dtd">
<svg version="1.1" id="Calque_1" xmlns="http://www.w3.org/2000/svg" xmlns:xlink="http://www.w3.org/1999/xlink" x="0px" y="0px"
	 width="45px" height="60.5px" viewBox="0 0 45 60.5" enable-background="new 0 0 45 60.5" xml:space="preserve">
<g>
	<path fill="#F9BB44" d="M42.8,4.4H2.2C1,4.4,0,3.4,0,2.2C0,1,1,0,2.2,0h40.6C44,0,45,1,45,2.2C45,3.4,44,4.4,42.8,4.4"/>
	<path fill="#F9BB44" d="M42.8,60.5H2.2c-1.2,0-2.2-1-2.2-2.2s1-2.2,2.2-2.2h40.6c1.2,0,2.2,1,2.2,2.2S44,60.5,42.8,60.5"/>
	<path fill="#F9BB44" d="M10.8,60.2c-0.7,0-1.3-0.3-1.8-0.9c-0.8-1-0.6-2.4,0.4-3.2l12.3-9.6c0.8-0.6,2-0.6,2.8,0l11.2,9
		c1,0.8,1.1,2.2,0.3,3.2c-0.8,1-2.2,1.1-3.2,0.3L23,51.1l-10.9,8.5C11.8,60,11.3,60.2,10.8,60.2"/>
	<path fill="#F9BB44" d="M36.8,16.6H8.2c-1.2,0-2.2-1-2.2-2.2c0-1.2,1-2.2,2.2-2.2h28.6c1.2,0,2.2,1,2.2,2.2
		C39,15.6,38,16.6,36.8,16.6"/>
	<path fill="#F9BB44" d="M5.6,60.5c-1.2,0-2.2-1-2.2-2.2v-1.7C3.3,48,3.9,43.1,16.6,34.5c2-1.2,2-4.2,2-4.2c0-2.8-1.9-4.2-2-4.3
		C3.9,17.4,3.4,12.5,3.4,3.9V2.2C3.4,1,4.4,0,5.6,0s2.2,1,2.2,2.2v1.7C7.7,11,7.7,14.6,19,22.3c0.1,0.1,4,2.7,4,7.9
		c0,0.2,0.1,5.4-4.1,8C7.7,45.8,7.7,49.4,7.8,56.5v1.7C7.8,59.5,6.8,60.5,5.6,60.5"/>
	<path fill="#F9BB44" d="M25.1,36.6c-0.6,0-1.2-0.2-1.6-0.7c-0.4-0.4-0.7-1-0.7-1.6c0-0.6,0.2-1.2,0.7-1.6c0.8-0.8,2.3-0.8,3.2,0
		c0.4,0.4,0.7,1,0.7,1.6c0,0.6-0.2,1.2-0.7,1.6S25.7,36.6,25.1,36.6"/>
	<path fill="#F9BB44" d="M39.4,60.5c-1.2,0-2.2-1-2.2-2.2v-1.7c0.1-7.1,0.1-10.7-11.2-18.4c-4.1-2.5-4-7.8-4-8c0-5.2,3.9-7.8,4-7.9
		C37.3,14.6,37.2,11.1,37.2,4V2.3c0-1.2,1-2.2,2.2-2.2c1.2,0,2.2,1,2.2,2.2V4c0.1,8.6-0.5,13.5-13.2,22.1c-0.1,0.1-2,1.4-2,4.2
		c0,0.1,0,3,1.9,4.2c12.8,8.7,13.3,13.6,13.2,22.2v1.7C41.7,59.5,40.7,60.5,39.4,60.5"/>
</g>
</svg>
