<?xml version="1.0" encoding="utf-8"?>
<!-- Generator: Adobe Illustrator 17.0.0, SVG Export Plug-In . SVG Version: 6.00 Build 0)  -->
<!DOCTYPE svg PUBLIC "-//W3C//DTD SVG 1.1//EN" "http://www.w3.org/Graphics/SVG/1.1/DTD/svg11.dtd">
<svg version="1.1" id="Calque_1" xmlns="http://www.w3.org/2000/svg" xmlns:xlink="http://www.w3.org/1999/xlink" x="0px" y="0px"
	 width="29.9px" height="24px" viewBox="0 0 29.9 24" enable-background="new 0 0 29.9 24" xml:space="preserve">
<g>
	<path fill="#F9BB44" d="M28.4,11.5c-0.4,0.5-0.9,1-1.5,1.4c0.6,0.6,1,1.5,1,2.5v5.2c0,0.8-0.6,1.4-1.4,1.4h-0.6h-8h-0.6h-3.1H3.3
		c-0.8,0-1.4-0.6-1.4-1.4v-5.2c0-1.9,1.5-3.4,3.4-3.4h2.2h0.4h0.4c3.1,0,5.6-2.5,5.6-5.6V5.7c0-3.1-2.5-5.6-5.6-5.6H7.6
		C4.5,0.1,2,2.6,2,5.7v0.7c0,1.2,0.4,2.3,1,3.2c0.2,0.3,0.4,0.5,0.6,0.7C1.5,11,0,13.1,0,15.4v5.2C0,22.5,1.5,24,3.4,24h14h8.5h0.6
		c1.9,0,3.4-1.5,3.4-3.4v-5.2C29.9,13.8,29.3,12.5,28.4,11.5 M3.9,5.5c0-2,1.6-3.6,3.6-3.6h0.7c2,0,3.6,1.6,3.6,3.6v0.7
		c0,2-1.6,3.6-3.6,3.6H7.9H7.5c-1.2,0-2.3-0.6-3-1.6C4.1,7.6,3.9,6.9,3.9,6.1V5.5z"/>
	<path fill="#F9BB44" d="M13.9,15.3v4.6h2v-4.6c0-1.9,1.5-3.4,3.4-3.4h2.2h0.4h0.4c3.1,0,5.6-2.5,5.6-5.6V5.6c0-3.1-2.5-5.6-5.6-5.6
		h-0.7C18.5,0,16,2.5,16,5.6v0.7c0,1.2,0.4,2.3,1,3.2c0.2,0.3,0.4,0.5,0.6,0.7C15.4,11,13.9,13,13.9,15.3 M17.9,5.5
		c0-2,1.6-3.6,3.6-3.6h0.7c2,0,3.6,1.6,3.6,3.6v0.7c0,2-1.6,3.6-3.6,3.6h-0.3h-0.4c-1.2,0-2.3-0.6-3-1.6c-0.4-0.6-0.6-1.3-0.6-2.1
		V5.5z"/>
</g>
</svg>
