<?xml version="1.0" encoding="utf-8"?>
<!-- Generator: Adobe Illustrator 17.0.0, SVG Export Plug-In . SVG Version: 6.00 Build 0)  -->
<!DOCTYPE svg PUBLIC "-//W3C//DTD SVG 1.1//EN" "http://www.w3.org/Graphics/SVG/1.1/DTD/svg11.dtd">
<svg version="1.1" id="Calque_1" xmlns="http://www.w3.org/2000/svg" xmlns:xlink="http://www.w3.org/1999/xlink" x="0px" y="0px"
	 width="100px" height="100px" viewBox="0 0 100 100" enable-background="new 0 0 100 100" xml:space="preserve">
<g>
	<path fill="#F9BB44" d="M95,50.378h-4.7c6.783-10.37,5.843-24.432-3.073-33.769c-4.957-5.193-11.836-8.048-19.372-8.048
		c-6.438,0-12.771,2.168-17.777,6.019c-5.009-3.851-11.34-6.019-17.774-6.019c-7.537,0-14.416,2.86-19.372,8.048
		C4.005,25.957,3.07,40.034,9.845,50.378H5v3.201h7.308c0.469,0.527,0.941,1.05,1.458,1.545l36.311,36.315l36.26-36.262
		c0.535-0.512,1.025-1.05,1.51-1.599H95V50.378z M17.565,21.035c3.736-3.915,8.97-6.067,14.738-6.067
		c5.795,0,11.465,2.243,15.562,6.147l2.212,2.109l2.211-2.109c4.096-3.904,9.771-6.147,15.566-6.147
		c5.768,0,11.001,2.157,14.737,6.067c7.873,8.25,7.633,21.321-0.529,29.343H61.724l-3.329-8.133l-5.998,16.389l-6.302-31.798
		L38.54,50.378H18.091C9.932,42.41,9.672,29.302,17.565,21.035 M50.077,82.379l-28.792-28.8h19.592l4.48-13.965l6.121,30.867
		l7.084-19.367l1.012,2.466h19.292L50.077,82.379z"/>
</g>
</svg>
