<?xml version="1.0" encoding="utf-8"?>
<!DOCTYPE svg PUBLIC "-//W3C//DTD SVG 1.1//EN" "http://www.w3.org/Graphics/SVG/1.1/DTD/svg11.dtd">
<svg xmlns="http://www.w3.org/2000/svg" viewBox="0 0 285.96 285.96">
  <defs>
    <style>
    .cls-1{fill:#fff;}
    .cls-2,
    .cls-3{fill:#40364a;}
    .cls-3{fill-rule:evenodd;}
    .cls-4{fill:#fdc24e;}
    .cls-5{fill:#d5dd48;}
    .cls-6{fill:#32bdbe;}
    </style>
  </defs>
  <title>Acseo</title>
  <circle class="cls-1" cx="142.98" cy="142.98" r="141.73"/>
  <path class="cls-2" d="M297.73,563.71c-78.84,0-143-64.14-143-143s64.14-143,143-143,143,64.14,143,143S376.57,563.71,297.73,563.71Zm0-283.46c-77.46,0-140.48,63-140.48,140.48s63,140.48,140.48,140.48,140.48-63,140.48-140.48S375.19,280.25,297.73,280.25Z" transform="translate(-154.75 -277.75)"/>
  <path class="cls-2" d="M198.48,452.53h-1.61v3.39H196v-8.39h2.32c2.3,0,3.23.78,3.23,2.54C201.58,451.67,200.76,452.53,198.48,452.53Zm-.42-4.23h-1.19v3.47h1.55c1.67,0,2.31-.48,2.31-1.69C200.73,448.38,199.66,448.29,198.06,448.29Z" transform="translate(-154.75 -277.75)"/>
  <path class="cls-2" d="M208.22,452.79l2.35,3.13h-1l-2.83-3.8c2.35,0,3.14-.41,3.14-1.92s-.86-1.91-2.81-1.91h-1.18v7.63H205v-8.39h2.08c2.63,0,3.61.95,3.61,2.7A2.41,2.41,0,0,1,208.22,452.79Z" transform="translate(-154.75 -277.75)"/>
  <path class="cls-2" d="M218.24,456.07a4.34,4.34,0,1,1,4.43-4.34A4.4,4.4,0,0,1,218.24,456.07Zm0-7.91a3.57,3.57,0,1,0,3.58,3.59A3.61,3.61,0,0,0,218.24,448.16Z" transform="translate(-154.75 -277.75)"/>
  <path class="cls-2" d="M227.8,456.08a2.09,2.09,0,0,1-2.25-2.15h.83a1.35,1.35,0,0,0,1.43,1.37c.91,0,1.38-.68,1.38-2v-5.76H230v5.76C230,455.16,229.23,456.08,227.8,456.08Z" transform="translate(-154.75 -277.75)"/>
  <path class="cls-2" d="M234,455.92v-8.39h4.58v.76h-3.74v3h3.62v.76h-3.62v3.1h3.74v.76Z" transform="translate(-154.75 -277.75)"/>
  <path class="cls-2" d="M244.34,448.29v7.63h-.84v-7.63h-1.92v-.76h4.68v.76Z" transform="translate(-154.75 -277.75)"/>
  <path class="cls-2" d="M251.48,456.07a2.5,2.5,0,0,1-2.63-2.5h.9a1.71,1.71,0,0,0,1.74,1.73,1.61,1.61,0,0,0,1.66-1.67c0-.92-.44-1.32-1.88-1.76a3.22,3.22,0,0,1-1.57-.74,2.05,2.05,0,0,1-.59-1.49,2.34,2.34,0,0,1,4.68,0h-.87a1.44,1.44,0,0,0-1.5-1.5,1.42,1.42,0,0,0-1.45,1.47,1.32,1.32,0,0,0,.4,1,3,3,0,0,0,1.24.52,4.72,4.72,0,0,1,1.55.67,2.2,2.2,0,0,1,.84,1.79A2.44,2.44,0,0,1,251.48,456.07Z" transform="translate(-154.75 -277.75)"/>
  <path class="cls-2" d="M270.31,455.92h-1.08L267.37,449l-1.84,6.88h-1.09L262,447.54h.86l2.07,7.3,2-7.3h.8l2,7.3,2.07-7.3h.86Z" transform="translate(-154.75 -277.75)"/>
  <path class="cls-2" d="M275.95,455.92v-8.39h4.59v.76h-3.75v3h3.62v.76h-3.62v3.1h3.75v.76Z" transform="translate(-154.75 -277.75)"/>
  <path class="cls-2" d="M286.37,455.92h-2.08v-8.39h2c2,0,2.88.74,2.88,2.18a1.79,1.79,0,0,1-.93,1.74,2,2,0,0,1,1.41,2.06C289.61,455.17,288.69,455.92,286.37,455.92Zm-.22-7.63h-1v2.85h1c1.58,0,2.12-.36,2.12-1.42S287.84,448.29,286.14,448.29Zm0,3.61h-1v3.26h1.15c1.72,0,2.47-.38,2.47-1.6C288.75,452,287.62,451.91,286.13,451.91Z" transform="translate(-154.75 -277.75)"/>
  <path class="cls-2" d="M305.38,456.07l-1.94-1.88c-.66,1.32-1.42,1.88-2.53,1.88a2.56,2.56,0,0,1-2.65-2.57c0-1.12.61-1.82,1.93-2.5a2.44,2.44,0,0,1-.93-1.76,2,2,0,0,1,4,.06c0,.91-.37,1.31-1.63,1.95l1.59,1.57,1.23-2.36h.93l-1.54,3,2.13,2.06Zm-4.59-4.46c-1.24.6-1.7,1.15-1.7,2a1.73,1.73,0,0,0,1.76,1.71c.81,0,1.35-.48,2-1.72Zm.48-3.46a1.11,1.11,0,0,0-1.17,1.08c0,.43.26.83.92,1.43,1-.39,1.45-.83,1.45-1.42A1.13,1.13,0,0,0,301.27,448.15Z" transform="translate(-154.75 -277.75)"/>
  <path class="cls-2" d="M322.61,455.92v-7.47l-3.16,7.47h-.73l-3.14-7.47v7.47h-.84v-8.39H316l3.05,7.14,3-7.14h1.3v8.39Z" transform="translate(-154.75 -277.75)"/>
  <path class="cls-2" d="M331.51,456.07a4.34,4.34,0,1,1,4.43-4.34A4.4,4.4,0,0,1,331.51,456.07Zm0-7.91a3.57,3.57,0,1,0,3.57,3.59A3.62,3.62,0,0,0,331.51,448.16Z" transform="translate(-154.75 -277.75)"/>
  <path class="cls-2" d="M341.63,455.92h-2.08v-8.39h2c2,0,2.87.74,2.87,2.18a1.79,1.79,0,0,1-.93,1.74,2,2,0,0,1,1.41,2.06C344.87,455.17,344,455.92,341.63,455.92Zm-.22-7.63h-1v2.85h1c1.58,0,2.12-.36,2.12-1.42S343.1,448.29,341.41,448.29Zm0,3.61h-1v3.26h1.15c1.71,0,2.47-.38,2.47-1.6C344,452,342.88,451.91,341.39,451.91Z" transform="translate(-154.75 -277.75)"/>
  <path class="cls-2" d="M348.33,455.92v-8.39h.84v8.39Z" transform="translate(-154.75 -277.75)"/>
  <path class="cls-2" d="M353.16,455.92v-8.39H354v7.62h3.47v.76Z" transform="translate(-154.75 -277.75)"/>
  <path class="cls-2" d="M360.67,455.92v-8.39h4.59v.76h-3.75v3h3.62v.76h-3.62v3.1h3.75v.76Z" transform="translate(-154.75 -277.75)"/>
  <path class="cls-2" d="M198.48,452.53h-1.61v3.39H196v-8.39h2.32c2.3,0,3.23.78,3.23,2.54C201.58,451.67,200.76,452.53,198.48,452.53Zm-.42-4.23h-1.19v3.47h1.55c1.67,0,2.31-.48,2.31-1.69C200.73,448.38,199.66,448.29,198.06,448.29Z" transform="translate(-154.75 -277.75)"/>
  <path class="cls-2" d="M208.22,452.79l2.35,3.13h-1l-2.83-3.8c2.35,0,3.14-.41,3.14-1.92s-.86-1.91-2.81-1.91h-1.18v7.63H205v-8.39h2.08c2.63,0,3.61.95,3.61,2.7A2.41,2.41,0,0,1,208.22,452.79Z" transform="translate(-154.75 -277.75)"/>
  <path class="cls-2" d="M218.24,456.07a4.34,4.34,0,1,1,4.43-4.34A4.4,4.4,0,0,1,218.24,456.07Zm0-7.91a3.57,3.57,0,1,0,3.58,3.59A3.61,3.61,0,0,0,218.24,448.16Z" transform="translate(-154.75 -277.75)"/>
  <path class="cls-2" d="M227.8,456.08a2.09,2.09,0,0,1-2.25-2.15h.83a1.35,1.35,0,0,0,1.43,1.37c.91,0,1.38-.68,1.38-2v-5.76H230v5.76C230,455.16,229.23,456.08,227.8,456.08Z" transform="translate(-154.75 -277.75)"/>
  <path class="cls-2" d="M234,455.92v-8.39h4.58v.76h-3.74v3h3.62v.76h-3.62v3.1h3.74v.76Z" transform="translate(-154.75 -277.75)"/>
  <path class="cls-2" d="M244.34,448.29v7.63h-.84v-7.63h-1.92v-.76h4.68v.76Z" transform="translate(-154.75 -277.75)"/>
  <path class="cls-2" d="M251.48,456.07a2.5,2.5,0,0,1-2.63-2.5h.9a1.71,1.71,0,0,0,1.74,1.73,1.61,1.61,0,0,0,1.66-1.67c0-.92-.44-1.32-1.88-1.76a3.22,3.22,0,0,1-1.57-.74,2.05,2.05,0,0,1-.59-1.49,2.34,2.34,0,0,1,4.68,0h-.87a1.44,1.44,0,0,0-1.5-1.5,1.42,1.42,0,0,0-1.45,1.47,1.32,1.32,0,0,0,.4,1,3,3,0,0,0,1.24.52,4.72,4.72,0,0,1,1.55.67,2.2,2.2,0,0,1,.84,1.79A2.44,2.44,0,0,1,251.48,456.07Z" transform="translate(-154.75 -277.75)"/>
  <path class="cls-2" d="M370.62,456.07a2.5,2.5,0,0,1-2.63-2.5h.9a1.72,1.72,0,0,0,1.75,1.73,1.61,1.61,0,0,0,1.66-1.67c0-.92-.43-1.32-1.87-1.76a3.24,3.24,0,0,1-1.57-.74,2.05,2.05,0,0,1-.59-1.49,2.34,2.34,0,0,1,4.68,0h-.87a1.44,1.44,0,0,0-1.5-1.5,1.42,1.42,0,0,0-1.45,1.47,1.32,1.32,0,0,0,.4,1,3,3,0,0,0,1.24.52,4.7,4.7,0,0,1,1.55.67,2.19,2.19,0,0,1,.84,1.79A2.44,2.44,0,0,1,370.62,456.07Z" transform="translate(-154.75 -277.75)"/>
  <path class="cls-2" d="M270.31,455.92h-1.08L267.37,449l-1.84,6.88h-1.09L262,447.54h.86l2.07,7.3,2-7.3h.8l2,7.3,2.07-7.3h.86Z" transform="translate(-154.75 -277.75)"/>
  <path class="cls-2" d="M275.95,455.92v-8.39h4.59v.76h-3.75v3h3.62v.76h-3.62v3.1h3.75v.76Z" transform="translate(-154.75 -277.75)"/>
  <path class="cls-2" d="M286.37,455.92h-2.08v-8.39h2c2,0,2.88.74,2.88,2.18a1.79,1.79,0,0,1-.93,1.74,2,2,0,0,1,1.41,2.06C289.61,455.17,288.69,455.92,286.37,455.92Zm-.22-7.63h-1v2.85h1c1.58,0,2.12-.36,2.12-1.42S287.84,448.29,286.14,448.29Zm0,3.61h-1v3.26h1.15c1.72,0,2.47-.38,2.47-1.6C288.75,452,287.62,451.91,286.13,451.91Z" transform="translate(-154.75 -277.75)"/>
  <path class="cls-2" d="M305.38,456.07l-1.94-1.88c-.66,1.32-1.42,1.88-2.53,1.88a2.56,2.56,0,0,1-2.65-2.57c0-1.12.61-1.82,1.93-2.5a2.44,2.44,0,0,1-.93-1.76,2,2,0,0,1,4,.06c0,.91-.37,1.31-1.63,1.95l1.59,1.57,1.23-2.36h.93l-1.54,3,2.13,2.06Zm-4.59-4.46c-1.24.6-1.7,1.15-1.7,2a1.73,1.73,0,0,0,1.76,1.71c.81,0,1.35-.48,2-1.72Zm.48-3.46a1.11,1.11,0,0,0-1.17,1.08c0,.43.26.83.92,1.43,1-.39,1.45-.83,1.45-1.42A1.13,1.13,0,0,0,301.27,448.15Z" transform="translate(-154.75 -277.75)"/>
  <path class="cls-2" d="M322.61,455.92v-7.47l-3.16,7.47h-.73l-3.14-7.47v7.47h-.84v-8.39H316l3.05,7.14,3-7.14h1.3v8.39Z" transform="translate(-154.75 -277.75)"/>
  <path class="cls-2" d="M331.51,456.07a4.34,4.34,0,1,1,4.43-4.34A4.4,4.4,0,0,1,331.51,456.07Zm0-7.91a3.57,3.57,0,1,0,3.57,3.59A3.62,3.62,0,0,0,331.51,448.16Z" transform="translate(-154.75 -277.75)"/>
  <path class="cls-2" d="M341.63,455.92h-2.08v-8.39h2c2,0,2.87.74,2.87,2.18a1.79,1.79,0,0,1-.93,1.74,2,2,0,0,1,1.41,2.06C344.87,455.17,344,455.92,341.63,455.92Zm-.22-7.63h-1v2.85h1c1.58,0,2.12-.36,2.12-1.42S343.1,448.29,341.41,448.29Zm0,3.61h-1v3.26h1.15c1.71,0,2.47-.38,2.47-1.6C344,452,342.88,451.91,341.39,451.91Z" transform="translate(-154.75 -277.75)"/>
  <path class="cls-2" d="M348.33,455.92v-8.39h.84v8.39Z" transform="translate(-154.75 -277.75)"/>
  <path class="cls-2" d="M353.16,455.92v-8.39H354v7.62h3.47v.76Z" transform="translate(-154.75 -277.75)"/>
  <path class="cls-2" d="M360.67,455.92v-8.39h4.59v.76h-3.75v3h3.62v.76h-3.62v3.1h3.75v.76Z" transform="translate(-154.75 -277.75)"/>
  <path class="cls-2" d="M198.48,452.53h-1.61v3.39H196v-8.39h2.32c2.3,0,3.23.78,3.23,2.54C201.58,451.67,200.76,452.53,198.48,452.53Zm-.42-4.23h-1.19v3.47h1.55c1.67,0,2.31-.48,2.31-1.69C200.73,448.38,199.66,448.29,198.06,448.29Z" transform="translate(-154.75 -277.75)"/>
  <path class="cls-2" d="M208.22,452.79l2.35,3.13h-1l-2.83-3.8c2.35,0,3.14-.41,3.14-1.92s-.86-1.91-2.81-1.91h-1.18v7.63H205v-8.39h2.08c2.63,0,3.61.95,3.61,2.7A2.41,2.41,0,0,1,208.22,452.79Z" transform="translate(-154.75 -277.75)"/>
  <path class="cls-2" d="M218.24,456.07a4.34,4.34,0,1,1,4.43-4.34A4.4,4.4,0,0,1,218.24,456.07Zm0-7.91a3.57,3.57,0,1,0,3.58,3.59A3.61,3.61,0,0,0,218.24,448.16Z" transform="translate(-154.75 -277.75)"/>
  <path class="cls-2" d="M227.8,456.08a2.09,2.09,0,0,1-2.25-2.15h.83a1.35,1.35,0,0,0,1.43,1.37c.91,0,1.38-.68,1.38-2v-5.76H230v5.76C230,455.16,229.23,456.08,227.8,456.08Z" transform="translate(-154.75 -277.75)"/>
  <path class="cls-2" d="M234,455.92v-8.39h4.58v.76h-3.74v3h3.62v.76h-3.62v3.1h3.74v.76Z" transform="translate(-154.75 -277.75)"/>
  <path class="cls-2" d="M244.34,448.29v7.63h-.84v-7.63h-1.92v-.76h4.68v.76Z" transform="translate(-154.75 -277.75)"/>
  <path class="cls-2" d="M251.48,456.07a2.5,2.5,0,0,1-2.63-2.5h.9a1.71,1.71,0,0,0,1.74,1.73,1.61,1.61,0,0,0,1.66-1.67c0-.92-.44-1.32-1.88-1.76a3.22,3.22,0,0,1-1.57-.74,2.05,2.05,0,0,1-.59-1.49,2.34,2.34,0,0,1,4.68,0h-.87a1.44,1.44,0,0,0-1.5-1.5,1.42,1.42,0,0,0-1.45,1.47,1.32,1.32,0,0,0,.4,1,3,3,0,0,0,1.24.52,4.72,4.72,0,0,1,1.55.67,2.2,2.2,0,0,1,.84,1.79A2.44,2.44,0,0,1,251.48,456.07Z" transform="translate(-154.75 -277.75)"/>
  <path class="cls-2" d="M270.31,455.92h-1.08L267.37,449l-1.84,6.88h-1.09L262,447.54h.86l2.07,7.3,2-7.3h.8l2,7.3,2.07-7.3h.86Z" transform="translate(-154.75 -277.75)"/>
  <path class="cls-2" d="M275.95,455.92v-8.39h4.59v.76h-3.75v3h3.62v.76h-3.62v3.1h3.75v.76Z" transform="translate(-154.75 -277.75)"/>
  <path class="cls-2" d="M286.37,455.92h-2.08v-8.39h2c2,0,2.88.74,2.88,2.18a1.79,1.79,0,0,1-.93,1.74,2,2,0,0,1,1.41,2.06C289.61,455.17,288.69,455.92,286.37,455.92Zm-.22-7.63h-1v2.85h1c1.58,0,2.12-.36,2.12-1.42S287.84,448.29,286.14,448.29Zm0,3.61h-1v3.26h1.15c1.72,0,2.47-.38,2.47-1.6C288.75,452,287.62,451.91,286.13,451.91Z" transform="translate(-154.75 -277.75)"/>
  <path class="cls-2" d="M305.38,456.07l-1.94-1.88c-.66,1.32-1.42,1.88-2.53,1.88a2.56,2.56,0,0,1-2.65-2.57c0-1.12.61-1.82,1.93-2.5a2.44,2.44,0,0,1-.93-1.76,2,2,0,0,1,4,.06c0,.91-.37,1.31-1.63,1.95l1.59,1.57,1.23-2.36h.93l-1.54,3,2.13,2.06Zm-4.59-4.46c-1.24.6-1.7,1.15-1.7,2a1.73,1.73,0,0,0,1.76,1.71c.81,0,1.35-.48,2-1.72Zm.48-3.46a1.11,1.11,0,0,0-1.17,1.08c0,.43.26.83.92,1.43,1-.39,1.45-.83,1.45-1.42A1.13,1.13,0,0,0,301.27,448.15Z" transform="translate(-154.75 -277.75)"/>
  <path class="cls-2" d="M322.61,455.92v-7.47l-3.16,7.47h-.73l-3.14-7.47v7.47h-.84v-8.39H316l3.05,7.14,3-7.14h1.3v8.39Z" transform="translate(-154.75 -277.75)"/>
  <path class="cls-2" d="M331.51,456.07a4.34,4.34,0,1,1,4.43-4.34A4.4,4.4,0,0,1,331.51,456.07Zm0-7.91a3.57,3.57,0,1,0,3.57,3.59A3.62,3.62,0,0,0,331.51,448.16Z" transform="translate(-154.75 -277.75)"/>
  <path class="cls-2" d="M341.63,455.92h-2.08v-8.39h2c2,0,2.87.74,2.87,2.18a1.79,1.79,0,0,1-.93,1.74,2,2,0,0,1,1.41,2.06C344.87,455.17,344,455.92,341.63,455.92Zm-.22-7.63h-1v2.85h1c1.58,0,2.12-.36,2.12-1.42S343.1,448.29,341.41,448.29Zm0,3.61h-1v3.26h1.15c1.71,0,2.47-.38,2.47-1.6C344,452,342.88,451.91,341.39,451.91Z" transform="translate(-154.75 -277.75)"/>
  <path class="cls-2" d="M348.33,455.92v-8.39h.84v8.39Z" transform="translate(-154.75 -277.75)"/>
  <path class="cls-2" d="M353.16,455.92v-8.39H354v7.62h3.47v.76Z" transform="translate(-154.75 -277.75)"/>
  <path class="cls-2" d="M360.67,455.92v-8.39h4.59v.76h-3.75v3h3.62v.76h-3.62v3.1h3.75v.76Z" transform="translate(-154.75 -277.75)"/>
  <path class="cls-2" d="M198.48,452.53h-1.61v3.39H196v-8.39h2.32c2.3,0,3.23.78,3.23,2.54C201.58,451.67,200.76,452.53,198.48,452.53Zm-.42-4.23h-1.19v3.47h1.55c1.67,0,2.31-.48,2.31-1.69C200.73,448.38,199.66,448.29,198.06,448.29Z" transform="translate(-154.75 -277.75)"/>
  <path class="cls-2" d="M208.22,452.79l2.35,3.13h-1l-2.83-3.8c2.35,0,3.14-.41,3.14-1.92s-.86-1.91-2.81-1.91h-1.18v7.63H205v-8.39h2.08c2.63,0,3.61.95,3.61,2.7A2.41,2.41,0,0,1,208.22,452.79Z" transform="translate(-154.75 -277.75)"/>
  <path class="cls-2" d="M218.24,456.07a4.34,4.34,0,1,1,4.43-4.34A4.4,4.4,0,0,1,218.24,456.07Zm0-7.91a3.57,3.57,0,1,0,3.58,3.59A3.61,3.61,0,0,0,218.24,448.16Z" transform="translate(-154.75 -277.75)"/>
  <path class="cls-2" d="M227.8,456.08a2.09,2.09,0,0,1-2.25-2.15h.83a1.35,1.35,0,0,0,1.43,1.37c.91,0,1.38-.68,1.38-2v-5.76H230v5.76C230,455.16,229.23,456.08,227.8,456.08Z" transform="translate(-154.75 -277.75)"/>
  <path class="cls-2" d="M234,455.92v-8.39h4.58v.76h-3.74v3h3.62v.76h-3.62v3.1h3.74v.76Z" transform="translate(-154.75 -277.75)"/>
  <path class="cls-2" d="M244.34,448.29v7.63h-.84v-7.63h-1.92v-.76h4.68v.76Z" transform="translate(-154.75 -277.75)"/>
  <path class="cls-2" d="M251.48,456.07a2.5,2.5,0,0,1-2.63-2.5h.9a1.71,1.71,0,0,0,1.74,1.73,1.61,1.61,0,0,0,1.66-1.67c0-.92-.44-1.32-1.88-1.76a3.22,3.22,0,0,1-1.57-.74,2.05,2.05,0,0,1-.59-1.49,2.34,2.34,0,0,1,4.68,0h-.87a1.44,1.44,0,0,0-1.5-1.5,1.42,1.42,0,0,0-1.45,1.47,1.32,1.32,0,0,0,.4,1,3,3,0,0,0,1.24.52,4.72,4.72,0,0,1,1.55.67,2.2,2.2,0,0,1,.84,1.79A2.44,2.44,0,0,1,251.48,456.07Z" transform="translate(-154.75 -277.75)"/>
  <path class="cls-2" d="M370.62,456.07a2.5,2.5,0,0,1-2.63-2.5h.9a1.72,1.72,0,0,0,1.75,1.73,1.61,1.61,0,0,0,1.66-1.67c0-.92-.43-1.32-1.87-1.76a3.24,3.24,0,0,1-1.57-.74,2.05,2.05,0,0,1-.59-1.49,2.34,2.34,0,0,1,4.68,0h-.87a1.44,1.44,0,0,0-1.5-1.5,1.42,1.42,0,0,0-1.45,1.47,1.32,1.32,0,0,0,.4,1,3,3,0,0,0,1.24.52,4.7,4.7,0,0,1,1.55.67,2.19,2.19,0,0,1,.84,1.79A2.44,2.44,0,0,1,370.62,456.07Z" transform="translate(-154.75 -277.75)"/>
  <path class="cls-2" d="M270.31,455.92h-1.08L267.37,449l-1.84,6.88h-1.09L262,447.54h.86l2.07,7.3,2-7.3h.8l2,7.3,2.07-7.3h.86Z" transform="translate(-154.75 -277.75)"/>
  <path class="cls-2" d="M275.95,455.92v-8.39h4.59v.76h-3.75v3h3.62v.76h-3.62v3.1h3.75v.76Z" transform="translate(-154.75 -277.75)"/>
  <path class="cls-2" d="M286.37,455.92h-2.08v-8.39h2c2,0,2.88.74,2.88,2.18a1.79,1.79,0,0,1-.93,1.74,2,2,0,0,1,1.41,2.06C289.61,455.17,288.69,455.92,286.37,455.92Zm-.22-7.63h-1v2.85h1c1.58,0,2.12-.36,2.12-1.42S287.84,448.29,286.14,448.29Zm0,3.61h-1v3.26h1.15c1.72,0,2.47-.38,2.47-1.6C288.75,452,287.62,451.91,286.13,451.91Z" transform="translate(-154.75 -277.75)"/>
  <path class="cls-2" d="M305.38,456.07l-1.94-1.88c-.66,1.32-1.42,1.88-2.53,1.88a2.56,2.56,0,0,1-2.65-2.57c0-1.12.61-1.82,1.93-2.5a2.44,2.44,0,0,1-.93-1.76,2,2,0,0,1,4,.06c0,.91-.37,1.31-1.63,1.95l1.59,1.57,1.23-2.36h.93l-1.54,3,2.13,2.06Zm-4.59-4.46c-1.24.6-1.7,1.15-1.7,2a1.73,1.73,0,0,0,1.76,1.71c.81,0,1.35-.48,2-1.72Zm.48-3.46a1.11,1.11,0,0,0-1.17,1.08c0,.43.26.83.92,1.43,1-.39,1.45-.83,1.45-1.42A1.13,1.13,0,0,0,301.27,448.15Z" transform="translate(-154.75 -277.75)"/>
  <path class="cls-2" d="M322.61,455.92v-7.47l-3.16,7.47h-.73l-3.14-7.47v7.47h-.84v-8.39H316l3.05,7.14,3-7.14h1.3v8.39Z" transform="translate(-154.75 -277.75)"/>
  <path class="cls-2" d="M331.51,456.07a4.34,4.34,0,1,1,4.43-4.34A4.4,4.4,0,0,1,331.51,456.07Zm0-7.91a3.57,3.57,0,1,0,3.57,3.59A3.62,3.62,0,0,0,331.51,448.16Z" transform="translate(-154.75 -277.75)"/>
  <path class="cls-2" d="M341.63,455.92h-2.08v-8.39h2c2,0,2.87.74,2.87,2.18a1.79,1.79,0,0,1-.93,1.74,2,2,0,0,1,1.41,2.06C344.87,455.17,344,455.92,341.63,455.92Zm-.22-7.63h-1v2.85h1c1.58,0,2.12-.36,2.12-1.42S343.1,448.29,341.41,448.29Zm0,3.61h-1v3.26h1.15c1.71,0,2.47-.38,2.47-1.6C344,452,342.88,451.91,341.39,451.91Z" transform="translate(-154.75 -277.75)"/>
  <path class="cls-2" d="M348.33,455.92v-8.39h.84v8.39Z" transform="translate(-154.75 -277.75)"/>
  <path class="cls-2" d="M353.16,455.92v-8.39H354v7.62h3.47v.76Z" transform="translate(-154.75 -277.75)"/>
  <path class="cls-2" d="M360.67,455.92v-8.39h4.59v.76h-3.75v3h3.62v.76h-3.62v3.1h3.75v.76Z" transform="translate(-154.75 -277.75)"/><polygon class="cls-3" points="58.68 130.64 75.45 154.68 58.46 115.95 41.9 154.68 58.68 130.64"/>
  <path class="cls-2" d="M221.37,426.69h-15.9l-2.61,5.74h-6.21L210.29,402h6.26l13.65,30.42h-6.26Zm-7.95-18.3-5.66,13h11.3Z" transform="translate(-154.75 -277.75)"/>
  <path class="cls-2" d="M265.27,428a18.7,18.7,0,0,1-13.47,5.26c-13.16,0-18.73-9.06-18.78-18.27s6-18.68,18.78-18.68a18.27,18.27,0,0,1,13,5.42l-4.45,4.3a12.18,12.18,0,0,0-8.55-3.34c-8.55,0-12.25,6.38-12.19,12.3s3.44,12,12.19,12a13,13,0,0,0,8.91-3.59Z" transform="translate(-154.75 -277.75)"/>
  <path class="cls-2" d="M295.33,405.55c-1.21-2-4.56-3.95-8.4-3.95-5,0-7.34,2.08-7.34,4.71,0,3.09,3.64,4,7.89,4.45,7.39.91,14.27,2.84,14.27,11.29,0,7.9-7,11.29-14.88,11.29-7.24,0-12.8-2.23-15.44-8.71l5.57-2.88c1.57,3.9,5.66,5.62,10,5.62s8.15-1.47,8.15-5.32c0-3.34-3.5-4.71-8.2-5.21C279.69,416,273,414.05,273,406.1c0-7.29,7.18-10.27,13.71-10.33,5.52,0,11.24,1.57,13.92,7Z" transform="translate(-154.75 -277.75)"/>
  <path class="cls-2" d="M335.93,432.43H309.41V397h26.52v6.48H316v8.15h19.18v6.23H316v8h19.89Z" transform="translate(-154.75 -277.75)"/>
  <path class="cls-2" d="M380,414.91c-.1,9.16-5.72,18.33-18.17,18.33s-18.22-9-18.22-18.27,6-18.68,18.22-18.68S380.15,405.65,380,414.91Zm-29.81.16c.15,5.82,3.29,12,11.64,12s11.49-6.28,11.59-12.1-3.24-12.66-11.59-12.66S350.09,409.09,350.24,415.06Z" transform="translate(-154.75 -277.75)"/>
  <path class="cls-4" d="M399.49,379.83a11,11,0,0,0-18,11l0,0a11.68,11.68,0,0,1-2.65,10.63,11.41,11.41,0,0,1-2.22,1.92A17.79,17.79,0,0,1,378,405.9a11.48,11.48,0,0,1,2.06-3.25,11.67,11.67,0,0,1,10.28-3.76,11,11,0,0,0,9.11-19.06Z" transform="translate(-154.75 -277.75)"/>
  <path class="cls-5" d="M401.9,403.42a11,11,0,0,0-9.13,5.08l0,0a11.67,11.67,0,0,1-9.61,5.27,11.35,11.35,0,0,1-3.13-.39c0,.51.05,1,0,1.55s0,.74-.05,1.11a11.53,11.53,0,0,1,3.16-.49,11.65,11.65,0,0,1,9.74,5,11,11,0,1,0,9-17.11Z" transform="translate(-154.75 -277.75)"/>
  <path class="cls-6" d="M401,434.53a11,11,0,0,0-9.78-3.68v0A11.69,11.69,0,0,1,381,426.89a11.4,11.4,0,0,1-2.38-4.37,18,18,0,0,1-1.69,3.26,11.48,11.48,0,0,1,2.73,2.28,11.64,11.64,0,0,1,2.49,10.66A11,11,0,1,0,401,434.53Z" transform="translate(-154.75 -277.75)"/>
</svg>
