<svg width="218" height="80" viewBox="0 0 218 80" version="1.1" xmlns="http://www.w3.org/2000/svg" xmlns:xlink="http://www.w3.org/1999/xlink"><title>acseo 2</title><desc>Created with Sketch.</desc><g id="Page-1" stroke="none" stroke-width="1" fill="none" fill-rule="evenodd"><g id="acseo"><path d="M2.73,75.78 L1.12,75.78 L1.12,79.17 L0.25,79.17 L0.25,70.78 L2.57,70.78 C4.87,70.78 5.8,71.56 5.8,73.32 C5.83,74.92 5.01,75.78 2.73,75.78 L2.73,75.78 Z M2.31,71.55 L1.12,71.55 L1.12,75.02 L2.67,75.02 C4.34,75.02 4.98,74.54 4.98,73.33 C4.98,71.63 3.91,71.54 2.31,71.54 L2.31,71.55 Z" id="Shape" fill="#000"/><path d="M12.47,76.04 L14.82,79.17 L13.82,79.17 L10.99,75.37 C13.34,75.37 14.13,74.96 14.13,73.45 C14.13,71.94 13.27,71.54 11.32,71.54 L10.14,71.54 L10.14,79.17 L9.25,79.17 L9.25,70.78 L11.33,70.78 C13.96,70.78 14.94,71.73 14.94,73.48 C14.982358,74.1553024 14.7388815,74.8173054 14.269068,75.3042375 C13.7992546,75.7911697 13.1463855,76.0581727 12.47,76.04 L12.47,76.04 Z" id="Shape" fill="#000"/><path d="M22.49,79.32 C20.1054266,79.2705396 18.2076067,77.3061026 18.2404106,74.9212419 C18.2732146,72.5363812 20.2243482,70.6248868 22.6093799,70.6410327 C24.9944115,70.6571786 26.9194871,72.5949138 26.92,74.98 C26.8870776,77.3983207 24.908487,79.3367142 22.49,79.32 L22.49,79.32 Z M22.49,71.41 C20.5222645,71.4155428 18.9300381,73.0122752 18.9300561,74.9800185 C18.9300741,76.9477618 20.5223297,78.544465 22.4900653,78.5499719 C24.4578009,78.5554787 26.0589684,76.9677124 26.07,75 C26.0591299,73.0257108 24.4642512,71.4263772 22.49,71.41 L22.49,71.41 Z" id="Shape" fill="#000"/><path d="M32.05,79.33 C31.4579483,79.3757578 30.8743825,79.1675081 30.4450581,78.7572648 C30.0157337,78.3470215 29.781187,77.7735192 29.8,77.18 L30.63,77.18 C30.6237682,77.5558044 30.7744871,77.9171939 31.0458903,78.1772094 C31.3172934,78.437225 31.6848075,78.5723246 32.06,78.55 C32.97,78.55 33.44,77.87 33.44,76.55 L33.44,70.79 L34.25,70.79 L34.25,76.55 C34.25,78.41 33.48,79.33 32.05,79.33 L32.05,79.33 Z" id="Shape" fill="#000"/><path d="M38.25,79.17 L38.25,70.78 L42.83,70.78 L42.83,71.54 L39.09,71.54 L39.09,74.54 L42.71,74.54 L42.71,75.3 L39.09,75.3 L39.09,78.4 L42.83,78.4 L42.83,79.16 L38.25,79.17 Z" id="Shape" fill="#000"/><path d="M48.59,71.54 L48.59,79.17 L47.75,79.17 L47.75,71.54 L45.83,71.54 L45.83,70.78 L50.51,70.78 L50.51,71.54 L48.59,71.54 Z" id="Shape" fill="#000"/><path d="M55.73,79.32 C55.0447356,79.3556827 54.3749287,79.1081289 53.8775809,78.6353649 C53.3802332,78.1626008 53.0990716,77.5061922 53.1,76.82 L54,76.82 C53.9945218,77.2822243 54.1764114,77.7269758 54.5042169,78.0528974 C54.8320225,78.378819 55.2778149,78.5581422 55.74,78.55 C56.1862099,78.564183 56.6182764,78.3924547 56.9330044,78.0758307 C57.2477324,77.7592068 57.4168627,77.3261167 57.4,76.88 C57.4,75.96 56.96,75.56 55.52,75.12 C54.9387989,75.0216862 54.3957357,74.7657201 53.95,74.38 C53.5593071,73.9839626 53.3463468,73.4461476 53.36,72.89 C53.36,71.5976537 54.4076537,70.55 55.7,70.55 C56.9923463,70.55 58.04,71.5976537 58.04,72.89 L57.17,72.89 C57.1871659,72.4871578 57.0346503,72.0955716 56.7495393,71.8104607 C56.4644284,71.5253497 56.0728422,71.3728341 55.67,71.39 C55.2793888,71.3815001 54.9025328,71.5343181 54.6281623,71.812473 C54.3537918,72.090628 54.2061504,72.4695419 54.22,72.86 C54.2050955,73.2350428 54.3505569,73.5986962 54.62,73.86 C54.9886642,74.1249231 55.4126459,74.3027219 55.86,74.38 C56.4127404,74.5083459 56.937808,74.7353106 57.41,75.05 C57.9574648,75.4801367 58.2690127,76.1440303 58.25,76.84 C58.2613172,77.5081429 57.9981141,78.1516899 57.521833,78.620411 C57.0455519,79.089132 56.3978764,79.3420053 55.73,79.32 L55.73,79.32 Z" id="Shape" fill="#000"/><path d="M74.56,79.17 L73.48,79.17 L71.62,72.25 L69.78,79.13 L68.69,79.13 L66.25,70.79 L67.11,70.79 L69.18,78.09 L71.18,70.79 L71.98,70.79 L73.98,78.09 L76.05,70.79 L76.91,70.79 L74.56,79.17 Z" id="Shape" fill="#000"/><path d="M80.2,79.17 L80.2,70.78 L84.79,70.78 L84.79,71.54 L81.04,71.54 L81.04,74.54 L84.66,74.54 L84.66,75.3 L81.04,75.3 L81.04,78.4 L84.79,78.4 L84.79,79.16 L80.2,79.17 Z" id="Shape" fill="#000"/><path d="M90.62,79.17 L88.54,79.17 L88.54,70.78 L90.54,70.78 C92.54,70.78 93.42,71.52 93.42,72.96 C93.4864647,73.673914 93.1205085,74.3586062 92.49,74.7 C93.3834489,74.9730639 93.9688241,75.8282929 93.9,76.76 C93.86,78.42 92.94,79.17 90.62,79.17 L90.62,79.17 Z M90.4,71.54 L89.4,71.54 L89.4,74.39 L90.4,74.39 C91.98,74.39 92.52,74.03 92.52,72.97 C92.52,71.91 92.09,71.54 90.39,71.54 L90.4,71.54 Z M90.4,75.15 L89.4,75.15 L89.4,78.41 L90.55,78.41 C92.27,78.41 93.02,78.03 93.02,76.81 C93,75.25 91.87,75.16 90.38,75.16 L90.4,75.15 Z" id="Shape" fill="#000"/><path d="M109.63,79.32 L107.69,77.44 C107.03,78.76 106.27,79.32 105.16,79.32 C104.463851,79.3444963 103.787779,79.0842541 103.287732,78.5993034 C102.787686,78.1143527 102.506848,77.4465728 102.51,76.75 C102.51,75.63 103.12,74.93 104.44,74.25 C103.893907,73.8222085 103.555718,73.1821946 103.51,72.49 C103.526569,71.3854306 104.435431,70.5034316 105.54,70.5200002 C106.644569,70.5365687 107.526568,71.4454306 107.51,72.55 C107.51,73.46 107.14,73.86 105.88,74.5 L107.47,76.07 L108.7,73.71 L109.63,73.71 L108.09,76.71 L110.22,78.77 L109.63,79.32 Z M105.04,74.86 C103.8,75.46 103.34,76.01 103.34,76.86 C103.345255,77.3205925 103.533976,77.760072 103.864345,78.0810547 C104.194713,78.4020375 104.639447,78.5780177 105.1,78.57 C105.91,78.57 106.45,78.09 107.1,76.85 L105.04,74.86 Z M105.52,71.4 C105.2205,71.3836889 104.927147,71.4892796 104.706747,71.6927257 C104.486347,71.8961718 104.357663,72.1801538 104.35,72.48 C104.35,72.91 104.61,73.31 105.27,73.91 C106.27,73.52 106.72,73.08 106.72,72.49 C106.709787,72.1847751 106.576465,71.8966804 106.350405,71.6913428 C106.124346,71.4860051 105.824799,71.3809109 105.52,71.4 L105.52,71.4 Z" id="Shape" fill="#000"/><path d="M126.86,79.17 L126.86,71.7 L123.7,79.17 L122.97,79.17 L119.83,71.7 L119.83,79.17 L118.99,79.17 L118.99,70.78 L120.25,70.78 L123.3,77.92 L126.3,70.78 L127.6,70.78 L127.6,79.17 L126.86,79.17 Z" id="Shape" fill="#000"/><path d="M135.76,79.32 C133.375427,79.2705396 131.477607,77.3061026 131.510411,74.9212419 C131.543215,72.5363812 133.494348,70.6248868 135.87938,70.6410327 C138.264412,70.6571786 140.189487,72.5949138 140.19,74.98 C140.157078,77.3983207 138.178487,79.3367142 135.76,79.32 L135.76,79.32 Z M135.76,71.41 C133.790954,71.4100309 132.193719,73.0043278 132.190062,74.9733707 C132.186406,76.9424135 133.777709,78.5426314 135.746741,78.5499752 C137.715774,78.5573189 139.318969,76.9690154 139.33,75 C139.313875,73.0317861 137.728093,71.4371201 135.76,71.41 L135.76,71.41 Z" id="Shape" fill="#000"/><path d="M145.88,79.17 L143.8,79.17 L143.8,70.78 L145.8,70.78 C147.8,70.78 148.67,71.52 148.67,72.96 C148.736465,73.673914 148.370509,74.3586062 147.74,74.7 C148.633449,74.9730639 149.218824,75.8282929 149.15,76.76 C149.12,78.42 148.25,79.17 145.88,79.17 L145.88,79.17 Z M145.66,71.54 L144.66,71.54 L144.66,74.39 L145.66,74.39 C147.24,74.39 147.78,74.03 147.78,72.97 C147.78,71.91 147.35,71.54 145.66,71.54 L145.66,71.54 Z M145.66,75.15 L144.66,75.15 L144.66,78.41 L145.81,78.41 C147.52,78.41 148.28,78.03 148.28,76.81 C148.25,75.25 147.13,75.16 145.64,75.16 L145.66,75.15 Z" id="Shape" fill="#000"/><path d="M152.58,79.17 L152.58,70.78 L153.42,70.78 L153.42,79.17 L152.58,79.17 Z" id="Shape" fill="#000"/><path d="M157.41,79.17 L157.41,70.78 L158.25,70.78 L158.25,78.4 L161.72,78.4 L161.72,79.16 L157.41,79.17 Z" id="Shape" fill="#000"/><path d="M164.92,79.17 L164.92,70.78 L169.51,70.78 L169.51,71.54 L165.76,71.54 L165.76,74.54 L169.38,74.54 L169.38,75.3 L165.76,75.3 L165.76,78.4 L169.51,78.4 L169.51,79.16 L164.92,79.17 Z" id="Shape" fill="#000"/><path d="M2.73,75.78 L1.12,75.78 L1.12,79.17 L0.25,79.17 L0.25,70.78 L2.57,70.78 C4.87,70.78 5.8,71.56 5.8,73.32 C5.83,74.92 5.01,75.78 2.73,75.78 L2.73,75.78 Z M2.31,71.55 L1.12,71.55 L1.12,75.02 L2.67,75.02 C4.34,75.02 4.98,74.54 4.98,73.33 C4.98,71.63 3.91,71.54 2.31,71.54 L2.31,71.55 Z" id="Shape" fill="#000"/><path d="M12.47,76.04 L14.82,79.17 L13.82,79.17 L10.99,75.37 C13.34,75.37 14.13,74.96 14.13,73.45 C14.13,71.94 13.27,71.54 11.32,71.54 L10.14,71.54 L10.14,79.17 L9.25,79.17 L9.25,70.78 L11.33,70.78 C13.96,70.78 14.94,71.73 14.94,73.48 C14.982358,74.1553024 14.7388815,74.8173054 14.269068,75.3042375 C13.7992546,75.7911697 13.1463855,76.0581727 12.47,76.04 L12.47,76.04 Z" id="Shape" fill="#000"/><path d="M22.49,79.32 C20.1054266,79.2705396 18.2076067,77.3061026 18.2404106,74.9212419 C18.2732146,72.5363812 20.2243482,70.6248868 22.6093799,70.6410327 C24.9944115,70.6571786 26.9194871,72.5949138 26.92,74.98 C26.8870776,77.3983207 24.908487,79.3367142 22.49,79.32 L22.49,79.32 Z M22.49,71.41 C20.5222645,71.4155428 18.9300381,73.0122752 18.9300561,74.9800185 C18.9300741,76.9477618 20.5223297,78.544465 22.4900653,78.5499719 C24.4578009,78.5554787 26.0589684,76.9677124 26.07,75 C26.0591299,73.0257108 24.4642512,71.4263772 22.49,71.41 L22.49,71.41 Z" id="Shape" fill="#000"/><path d="M32.05,79.33 C31.4579483,79.3757578 30.8743825,79.1675081 30.4450581,78.7572648 C30.0157337,78.3470215 29.781187,77.7735192 29.8,77.18 L30.63,77.18 C30.6237682,77.5558044 30.7744871,77.9171939 31.0458903,78.1772094 C31.3172934,78.437225 31.6848075,78.5723246 32.06,78.55 C32.97,78.55 33.44,77.87 33.44,76.55 L33.44,70.79 L34.25,70.79 L34.25,76.55 C34.25,78.41 33.48,79.33 32.05,79.33 L32.05,79.33 Z" id="Shape" fill="#000"/><path d="M38.25,79.17 L38.25,70.78 L42.83,70.78 L42.83,71.54 L39.09,71.54 L39.09,74.54 L42.71,74.54 L42.71,75.3 L39.09,75.3 L39.09,78.4 L42.83,78.4 L42.83,79.16 L38.25,79.17 Z" id="Shape" fill="#000"/><path d="M48.59,71.54 L48.59,79.17 L47.75,79.17 L47.75,71.54 L45.83,71.54 L45.83,70.78 L50.51,70.78 L50.51,71.54 L48.59,71.54 Z" id="Shape" fill="#000"/><path d="M55.73,79.32 C55.0447356,79.3556827 54.3749287,79.1081289 53.8775809,78.6353649 C53.3802332,78.1626008 53.0990716,77.5061922 53.1,76.82 L54,76.82 C53.9945218,77.2822243 54.1764114,77.7269758 54.5042169,78.0528974 C54.8320225,78.378819 55.2778149,78.5581422 55.74,78.55 C56.1862099,78.564183 56.6182764,78.3924547 56.9330044,78.0758307 C57.2477324,77.7592068 57.4168627,77.3261167 57.4,76.88 C57.4,75.96 56.96,75.56 55.52,75.12 C54.9387989,75.0216862 54.3957357,74.7657201 53.95,74.38 C53.5593071,73.9839626 53.3463468,73.4461476 53.36,72.89 C53.36,71.5976537 54.4076537,70.55 55.7,70.55 C56.9923463,70.55 58.04,71.5976537 58.04,72.89 L57.17,72.89 C57.1871659,72.4871578 57.0346503,72.0955716 56.7495393,71.8104607 C56.4644284,71.5253497 56.0728422,71.3728341 55.67,71.39 C55.2793888,71.3815001 54.9025328,71.5343181 54.6281623,71.812473 C54.3537918,72.090628 54.2061504,72.4695419 54.22,72.86 C54.2050955,73.2350428 54.3505569,73.5986962 54.62,73.86 C54.9886642,74.1249231 55.4126459,74.3027219 55.86,74.38 C56.4127404,74.5083459 56.937808,74.7353106 57.41,75.05 C57.9574648,75.4801367 58.2690127,76.1440303 58.25,76.84 C58.2613172,77.5081429 57.9981141,78.1516899 57.521833,78.620411 C57.0455519,79.089132 56.3978764,79.3420053 55.73,79.32 L55.73,79.32 Z" id="Shape" fill="#000"/><path d="M174.87,79.32 C174.184736,79.3556827 173.514929,79.1081289 173.017581,78.6353649 C172.520233,78.1626008 172.239072,77.5061922 172.24,76.82 L173.14,76.82 C173.137237,77.2831497 173.321377,77.7278409 173.650755,78.0534554 C173.980134,78.37907 174.426913,78.5580866 174.89,78.55 C175.33621,78.564183 175.768276,78.3924547 176.083004,78.0758307 C176.397732,77.7592068 176.566863,77.3261167 176.55,76.88 C176.55,75.96 176.12,75.56 174.68,75.12 C174.099107,75.020706 173.556296,74.7648587 173.11,74.38 C172.719307,73.9839626 172.506347,73.4461476 172.52,72.89 C172.52,71.5976537 173.567654,70.55 174.86,70.55 C176.152346,70.55 177.2,71.5976537 177.2,72.89 L176.33,72.89 C176.347166,72.4871578 176.19465,72.0955716 175.909539,71.8104607 C175.624428,71.5253497 175.232842,71.3728341 174.83,71.39 C174.439389,71.3815001 174.062533,71.5343181 173.788162,71.812473 C173.513792,72.090628 173.36615,72.4695419 173.38,72.86 C173.365096,73.2350428 173.510557,73.5986962 173.78,73.86 C174.148664,74.1249231 174.572646,74.3027219 175.02,74.38 C175.572878,74.5079272 176.098019,74.7349234 176.57,75.05 C177.118752,75.4791119 177.430623,76.1436951 177.41,76.84 C177.421582,77.5117471 177.155671,78.1585465 176.67496,78.6279024 C176.194249,79.0972583 175.541278,79.3476346 174.87,79.32 L174.87,79.32 Z" id="Shape" fill="#000"/><path d="M74.56,79.17 L73.48,79.17 L71.62,72.25 L69.78,79.13 L68.69,79.13 L66.25,70.79 L67.11,70.79 L69.18,78.09 L71.18,70.79 L71.98,70.79 L73.98,78.09 L76.05,70.79 L76.91,70.79 L74.56,79.17 Z" id="Shape" fill="#000"/><path d="M80.2,79.17 L80.2,70.78 L84.79,70.78 L84.79,71.54 L81.04,71.54 L81.04,74.54 L84.66,74.54 L84.66,75.3 L81.04,75.3 L81.04,78.4 L84.79,78.4 L84.79,79.16 L80.2,79.17 Z" id="Shape" fill="#000"/><path d="M90.62,79.17 L88.54,79.17 L88.54,70.78 L90.54,70.78 C92.54,70.78 93.42,71.52 93.42,72.96 C93.4864647,73.673914 93.1205085,74.3586062 92.49,74.7 C93.3834489,74.9730639 93.9688241,75.8282929 93.9,76.76 C93.86,78.42 92.94,79.17 90.62,79.17 L90.62,79.17 Z M90.4,71.54 L89.4,71.54 L89.4,74.39 L90.4,74.39 C91.98,74.39 92.52,74.03 92.52,72.97 C92.52,71.91 92.09,71.54 90.39,71.54 L90.4,71.54 Z M90.4,75.15 L89.4,75.15 L89.4,78.41 L90.55,78.41 C92.27,78.41 93.02,78.03 93.02,76.81 C93,75.25 91.87,75.16 90.38,75.16 L90.4,75.15 Z" id="Shape" fill="#000"/><path d="M109.63,79.32 L107.69,77.44 C107.03,78.76 106.27,79.32 105.16,79.32 C104.463851,79.3444963 103.787779,79.0842541 103.287732,78.5993034 C102.787686,78.1143527 102.506848,77.4465728 102.51,76.75 C102.51,75.63 103.12,74.93 104.44,74.25 C103.893907,73.8222085 103.555718,73.1821946 103.51,72.49 C103.526569,71.3854306 104.435431,70.5034316 105.54,70.5200002 C106.644569,70.5365687 107.526568,71.4454306 107.51,72.55 C107.51,73.46 107.14,73.86 105.88,74.5 L107.47,76.07 L108.7,73.71 L109.63,73.71 L108.09,76.71 L110.22,78.77 L109.63,79.32 Z M105.04,74.86 C103.8,75.46 103.34,76.01 103.34,76.86 C103.345255,77.3205925 103.533976,77.760072 103.864345,78.0810547 C104.194713,78.4020375 104.639447,78.5780177 105.1,78.57 C105.91,78.57 106.45,78.09 107.1,76.85 L105.04,74.86 Z M105.52,71.4 C105.2205,71.3836889 104.927147,71.4892796 104.706747,71.6927257 C104.486347,71.8961718 104.357663,72.1801538 104.35,72.48 C104.35,72.91 104.61,73.31 105.27,73.91 C106.27,73.52 106.72,73.08 106.72,72.49 C106.709787,72.1847751 106.576465,71.8966804 106.350405,71.6913428 C106.124346,71.4860051 105.824799,71.3809109 105.52,71.4 L105.52,71.4 Z" id="Shape" fill="#000"/><path d="M126.86,79.17 L126.86,71.7 L123.7,79.17 L122.97,79.17 L119.83,71.7 L119.83,79.17 L118.99,79.17 L118.99,70.78 L120.25,70.78 L123.3,77.92 L126.3,70.78 L127.6,70.78 L127.6,79.17 L126.86,79.17 Z" id="Shape" fill="#000"/><path d="M135.76,79.32 C133.375427,79.2705396 131.477607,77.3061026 131.510411,74.9212419 C131.543215,72.5363812 133.494348,70.6248868 135.87938,70.6410327 C138.264412,70.6571786 140.189487,72.5949138 140.19,74.98 C140.157078,77.3983207 138.178487,79.3367142 135.76,79.32 L135.76,79.32 Z M135.76,71.41 C133.790954,71.4100309 132.193719,73.0043278 132.190062,74.9733707 C132.186406,76.9424135 133.777709,78.5426314 135.746741,78.5499752 C137.715774,78.5573189 139.318969,76.9690154 139.33,75 C139.313875,73.0317861 137.728093,71.4371201 135.76,71.41 L135.76,71.41 Z" id="Shape" fill="#000"/><path d="M145.88,79.17 L143.8,79.17 L143.8,70.78 L145.8,70.78 C147.8,70.78 148.67,71.52 148.67,72.96 C148.736465,73.673914 148.370509,74.3586062 147.74,74.7 C148.633449,74.9730639 149.218824,75.8282929 149.15,76.76 C149.12,78.42 148.25,79.17 145.88,79.17 L145.88,79.17 Z M145.66,71.54 L144.66,71.54 L144.66,74.39 L145.66,74.39 C147.24,74.39 147.78,74.03 147.78,72.97 C147.78,71.91 147.35,71.54 145.66,71.54 L145.66,71.54 Z M145.66,75.15 L144.66,75.15 L144.66,78.41 L145.81,78.41 C147.52,78.41 148.28,78.03 148.28,76.81 C148.25,75.25 147.13,75.16 145.64,75.16 L145.66,75.15 Z" id="Shape" fill="#000"/><path d="M152.58,79.17 L152.58,70.78 L153.42,70.78 L153.42,79.17 L152.58,79.17 Z" id="Shape" fill="#000"/><path d="M157.41,79.17 L157.41,70.78 L158.25,70.78 L158.25,78.4 L161.72,78.4 L161.72,79.16 L157.41,79.17 Z" id="Shape" fill="#000"/><path d="M164.92,79.17 L164.92,70.78 L169.51,70.78 L169.51,71.54 L165.76,71.54 L165.76,74.54 L169.38,74.54 L169.38,75.3 L165.76,75.3 L165.76,78.4 L169.51,78.4 L169.51,79.16 L164.92,79.17 Z" id="Shape" fill="#000"/><path d="M2.73,75.78 L1.12,75.78 L1.12,79.17 L0.25,79.17 L0.25,70.78 L2.57,70.78 C4.87,70.78 5.8,71.56 5.8,73.32 C5.83,74.92 5.01,75.78 2.73,75.78 L2.73,75.78 Z M2.31,71.55 L1.12,71.55 L1.12,75.02 L2.67,75.02 C4.34,75.02 4.98,74.54 4.98,73.33 C4.98,71.63 3.91,71.54 2.31,71.54 L2.31,71.55 Z" id="Shape" fill="#000"/><path d="M12.47,76.04 L14.82,79.17 L13.82,79.17 L10.99,75.37 C13.34,75.37 14.13,74.96 14.13,73.45 C14.13,71.94 13.27,71.54 11.32,71.54 L10.14,71.54 L10.14,79.17 L9.25,79.17 L9.25,70.78 L11.33,70.78 C13.96,70.78 14.94,71.73 14.94,73.48 C14.982358,74.1553024 14.7388815,74.8173054 14.269068,75.3042375 C13.7992546,75.7911697 13.1463855,76.0581727 12.47,76.04 L12.47,76.04 Z" id="Shape" fill="#000"/><path d="M22.49,79.32 C20.1054266,79.2705396 18.2076067,77.3061026 18.2404106,74.9212419 C18.2732146,72.5363812 20.2243482,70.6248868 22.6093799,70.6410327 C24.9944115,70.6571786 26.9194871,72.5949138 26.92,74.98 C26.8870776,77.3983207 24.908487,79.3367142 22.49,79.32 L22.49,79.32 Z M22.49,71.41 C20.5222645,71.4155428 18.9300381,73.0122752 18.9300561,74.9800185 C18.9300741,76.9477618 20.5223297,78.544465 22.4900653,78.5499719 C24.4578009,78.5554787 26.0589684,76.9677124 26.07,75 C26.0591299,73.0257108 24.4642512,71.4263772 22.49,71.41 L22.49,71.41 Z" id="Shape" fill="#000"/><path d="M32.05,79.33 C31.4579483,79.3757578 30.8743825,79.1675081 30.4450581,78.7572648 C30.0157337,78.3470215 29.781187,77.7735192 29.8,77.18 L30.63,77.18 C30.6237682,77.5558044 30.7744871,77.9171939 31.0458903,78.1772094 C31.3172934,78.437225 31.6848075,78.5723246 32.06,78.55 C32.97,78.55 33.44,77.87 33.44,76.55 L33.44,70.79 L34.25,70.79 L34.25,76.55 C34.25,78.41 33.48,79.33 32.05,79.33 L32.05,79.33 Z" id="Shape" fill="#000"/><path d="M38.25,79.17 L38.25,70.78 L42.83,70.78 L42.83,71.54 L39.09,71.54 L39.09,74.54 L42.71,74.54 L42.71,75.3 L39.09,75.3 L39.09,78.4 L42.83,78.4 L42.83,79.16 L38.25,79.17 Z" id="Shape" fill="#000"/><path d="M48.59,71.54 L48.59,79.17 L47.75,79.17 L47.75,71.54 L45.83,71.54 L45.83,70.78 L50.51,70.78 L50.51,71.54 L48.59,71.54 Z" id="Shape" fill="#000"/><path d="M55.73,79.32 C55.0447356,79.3556827 54.3749287,79.1081289 53.8775809,78.6353649 C53.3802332,78.1626008 53.0990716,77.5061922 53.1,76.82 L54,76.82 C53.9945218,77.2822243 54.1764114,77.7269758 54.5042169,78.0528974 C54.8320225,78.378819 55.2778149,78.5581422 55.74,78.55 C56.1862099,78.564183 56.6182764,78.3924547 56.9330044,78.0758307 C57.2477324,77.7592068 57.4168627,77.3261167 57.4,76.88 C57.4,75.96 56.96,75.56 55.52,75.12 C54.9387989,75.0216862 54.3957357,74.7657201 53.95,74.38 C53.5593071,73.9839626 53.3463468,73.4461476 53.36,72.89 C53.36,71.5976537 54.4076537,70.55 55.7,70.55 C56.9923463,70.55 58.04,71.5976537 58.04,72.89 L57.17,72.89 C57.1871659,72.4871578 57.0346503,72.0955716 56.7495393,71.8104607 C56.4644284,71.5253497 56.0728422,71.3728341 55.67,71.39 C55.2793888,71.3815001 54.9025328,71.5343181 54.6281623,71.812473 C54.3537918,72.090628 54.2061504,72.4695419 54.22,72.86 C54.2050955,73.2350428 54.3505569,73.5986962 54.62,73.86 C54.9886642,74.1249231 55.4126459,74.3027219 55.86,74.38 C56.4127404,74.5083459 56.937808,74.7353106 57.41,75.05 C57.9574648,75.4801367 58.2690127,76.1440303 58.25,76.84 C58.2613172,77.5081429 57.9981141,78.1516899 57.521833,78.620411 C57.0455519,79.089132 56.3978764,79.3420053 55.73,79.32 L55.73,79.32 Z" id="Shape" fill="#000"/><path d="M74.56,79.17 L73.48,79.17 L71.62,72.25 L69.78,79.13 L68.69,79.13 L66.25,70.79 L67.11,70.79 L69.18,78.09 L71.18,70.79 L71.98,70.79 L73.98,78.09 L76.05,70.79 L76.91,70.79 L74.56,79.17 Z" id="Shape" fill="#000"/><path d="M80.2,79.17 L80.2,70.78 L84.79,70.78 L84.79,71.54 L81.04,71.54 L81.04,74.54 L84.66,74.54 L84.66,75.3 L81.04,75.3 L81.04,78.4 L84.79,78.4 L84.79,79.16 L80.2,79.17 Z" id="Shape" fill="#000"/><path d="M90.62,79.17 L88.54,79.17 L88.54,70.78 L90.54,70.78 C92.54,70.78 93.42,71.52 93.42,72.96 C93.4864647,73.673914 93.1205085,74.3586062 92.49,74.7 C93.3834489,74.9730639 93.9688241,75.8282929 93.9,76.76 C93.86,78.42 92.94,79.17 90.62,79.17 L90.62,79.17 Z M90.4,71.54 L89.4,71.54 L89.4,74.39 L90.4,74.39 C91.98,74.39 92.52,74.03 92.52,72.97 C92.52,71.91 92.09,71.54 90.39,71.54 L90.4,71.54 Z M90.4,75.15 L89.4,75.15 L89.4,78.41 L90.55,78.41 C92.27,78.41 93.02,78.03 93.02,76.81 C93,75.25 91.87,75.16 90.38,75.16 L90.4,75.15 Z" id="Shape" fill="#000"/><path d="M109.63,79.32 L107.69,77.44 C107.03,78.76 106.27,79.32 105.16,79.32 C104.463851,79.3444963 103.787779,79.0842541 103.287732,78.5993034 C102.787686,78.1143527 102.506848,77.4465728 102.51,76.75 C102.51,75.63 103.12,74.93 104.44,74.25 C103.893907,73.8222085 103.555718,73.1821946 103.51,72.49 C103.526569,71.3854306 104.435431,70.5034316 105.54,70.5200002 C106.644569,70.5365687 107.526568,71.4454306 107.51,72.55 C107.51,73.46 107.14,73.86 105.88,74.5 L107.47,76.07 L108.7,73.71 L109.63,73.71 L108.09,76.71 L110.22,78.77 L109.63,79.32 Z M105.04,74.86 C103.8,75.46 103.34,76.01 103.34,76.86 C103.345255,77.3205925 103.533976,77.760072 103.864345,78.0810547 C104.194713,78.4020375 104.639447,78.5780177 105.1,78.57 C105.91,78.57 106.45,78.09 107.1,76.85 L105.04,74.86 Z M105.52,71.4 C105.2205,71.3836889 104.927147,71.4892796 104.706747,71.6927257 C104.486347,71.8961718 104.357663,72.1801538 104.35,72.48 C104.35,72.91 104.61,73.31 105.27,73.91 C106.27,73.52 106.72,73.08 106.72,72.49 C106.709787,72.1847751 106.576465,71.8966804 106.350405,71.6913428 C106.124346,71.4860051 105.824799,71.3809109 105.52,71.4 L105.52,71.4 Z" id="Shape" fill="#000"/><path d="M126.86,79.17 L126.86,71.7 L123.7,79.17 L122.97,79.17 L119.83,71.7 L119.83,79.17 L118.99,79.17 L118.99,70.78 L120.25,70.78 L123.3,77.92 L126.3,70.78 L127.6,70.78 L127.6,79.17 L126.86,79.17 Z" id="Shape" fill="#000"/><path d="M135.76,79.32 C133.375427,79.2705396 131.477607,77.3061026 131.510411,74.9212419 C131.543215,72.5363812 133.494348,70.6248868 135.87938,70.6410327 C138.264412,70.6571786 140.189487,72.5949138 140.19,74.98 C140.157078,77.3983207 138.178487,79.3367142 135.76,79.32 L135.76,79.32 Z M135.76,71.41 C133.790954,71.4100309 132.193719,73.0043278 132.190062,74.9733707 C132.186406,76.9424135 133.777709,78.5426314 135.746741,78.5499752 C137.715774,78.5573189 139.318969,76.9690154 139.33,75 C139.313875,73.0317861 137.728093,71.4371201 135.76,71.41 L135.76,71.41 Z" id="Shape" fill="#000"/><path d="M145.88,79.17 L143.8,79.17 L143.8,70.78 L145.8,70.78 C147.8,70.78 148.67,71.52 148.67,72.96 C148.736465,73.673914 148.370509,74.3586062 147.74,74.7 C148.633449,74.9730639 149.218824,75.8282929 149.15,76.76 C149.12,78.42 148.25,79.17 145.88,79.17 L145.88,79.17 Z M145.66,71.54 L144.66,71.54 L144.66,74.39 L145.66,74.39 C147.24,74.39 147.78,74.03 147.78,72.97 C147.78,71.91 147.35,71.54 145.66,71.54 L145.66,71.54 Z M145.66,75.15 L144.66,75.15 L144.66,78.41 L145.81,78.41 C147.52,78.41 148.28,78.03 148.28,76.81 C148.25,75.25 147.13,75.16 145.64,75.16 L145.66,75.15 Z" id="Shape" fill="#000"/><path d="M152.58,79.17 L152.58,70.78 L153.42,70.78 L153.42,79.17 L152.58,79.17 Z" id="Shape" fill="#000"/><path d="M157.41,79.17 L157.41,70.78 L158.25,70.78 L158.25,78.4 L161.72,78.4 L161.72,79.16 L157.41,79.17 Z" id="Shape" fill="#000"/><path d="M164.92,79.17 L164.92,70.78 L169.51,70.78 L169.51,71.54 L165.76,71.54 L165.76,74.54 L169.38,74.54 L169.38,75.3 L165.76,75.3 L165.76,78.4 L169.51,78.4 L169.51,79.16 L164.92,79.17 Z" id="Shape" fill="#000"/><path d="M2.73,75.78 L1.12,75.78 L1.12,79.17 L0.25,79.17 L0.25,70.78 L2.57,70.78 C4.87,70.78 5.8,71.56 5.8,73.32 C5.83,74.92 5.01,75.78 2.73,75.78 L2.73,75.78 Z M2.31,71.55 L1.12,71.55 L1.12,75.02 L2.67,75.02 C4.34,75.02 4.98,74.54 4.98,73.33 C4.98,71.63 3.91,71.54 2.31,71.54 L2.31,71.55 Z" id="Shape" fill="#000"/><path d="M12.47,76.04 L14.82,79.17 L13.82,79.17 L10.99,75.37 C13.34,75.37 14.13,74.96 14.13,73.45 C14.13,71.94 13.27,71.54 11.32,71.54 L10.14,71.54 L10.14,79.17 L9.25,79.17 L9.25,70.78 L11.33,70.78 C13.96,70.78 14.94,71.73 14.94,73.48 C14.982358,74.1553024 14.7388815,74.8173054 14.269068,75.3042375 C13.7992546,75.7911697 13.1463855,76.0581727 12.47,76.04 L12.47,76.04 Z" id="Shape" fill="#000"/><path d="M22.49,79.32 C20.1054266,79.2705396 18.2076067,77.3061026 18.2404106,74.9212419 C18.2732146,72.5363812 20.2243482,70.6248868 22.6093799,70.6410327 C24.9944115,70.6571786 26.9194871,72.5949138 26.92,74.98 C26.8870776,77.3983207 24.908487,79.3367142 22.49,79.32 L22.49,79.32 Z M22.49,71.41 C20.5222645,71.4155428 18.9300381,73.0122752 18.9300561,74.9800185 C18.9300741,76.9477618 20.5223297,78.544465 22.4900653,78.5499719 C24.4578009,78.5554787 26.0589684,76.9677124 26.07,75 C26.0591299,73.0257108 24.4642512,71.4263772 22.49,71.41 L22.49,71.41 Z" id="Shape" fill="#000"/><path d="M32.05,79.33 C31.4579483,79.3757578 30.8743825,79.1675081 30.4450581,78.7572648 C30.0157337,78.3470215 29.781187,77.7735192 29.8,77.18 L30.63,77.18 C30.6237682,77.5558044 30.7744871,77.9171939 31.0458903,78.1772094 C31.3172934,78.437225 31.6848075,78.5723246 32.06,78.55 C32.97,78.55 33.44,77.87 33.44,76.55 L33.44,70.79 L34.25,70.79 L34.25,76.55 C34.25,78.41 33.48,79.33 32.05,79.33 L32.05,79.33 Z" id="Shape" fill="#000"/><path d="M38.25,79.17 L38.25,70.78 L42.83,70.78 L42.83,71.54 L39.09,71.54 L39.09,74.54 L42.71,74.54 L42.71,75.3 L39.09,75.3 L39.09,78.4 L42.83,78.4 L42.83,79.16 L38.25,79.17 Z" id="Shape" fill="#000"/><path d="M48.59,71.54 L48.59,79.17 L47.75,79.17 L47.75,71.54 L45.83,71.54 L45.83,70.78 L50.51,70.78 L50.51,71.54 L48.59,71.54 Z" id="Shape" fill="#000"/><path d="M55.73,79.32 C55.0447356,79.3556827 54.3749287,79.1081289 53.8775809,78.6353649 C53.3802332,78.1626008 53.0990716,77.5061922 53.1,76.82 L54,76.82 C53.9945218,77.2822243 54.1764114,77.7269758 54.5042169,78.0528974 C54.8320225,78.378819 55.2778149,78.5581422 55.74,78.55 C56.1862099,78.564183 56.6182764,78.3924547 56.9330044,78.0758307 C57.2477324,77.7592068 57.4168627,77.3261167 57.4,76.88 C57.4,75.96 56.96,75.56 55.52,75.12 C54.9387989,75.0216862 54.3957357,74.7657201 53.95,74.38 C53.5593071,73.9839626 53.3463468,73.4461476 53.36,72.89 C53.36,71.5976537 54.4076537,70.55 55.7,70.55 C56.9923463,70.55 58.04,71.5976537 58.04,72.89 L57.17,72.89 C57.1871659,72.4871578 57.0346503,72.0955716 56.7495393,71.8104607 C56.4644284,71.5253497 56.0728422,71.3728341 55.67,71.39 C55.2793888,71.3815001 54.9025328,71.5343181 54.6281623,71.812473 C54.3537918,72.090628 54.2061504,72.4695419 54.22,72.86 C54.2050955,73.2350428 54.3505569,73.5986962 54.62,73.86 C54.9886642,74.1249231 55.4126459,74.3027219 55.86,74.38 C56.4127404,74.5083459 56.937808,74.7353106 57.41,75.05 C57.9574648,75.4801367 58.2690127,76.1440303 58.25,76.84 C58.2613172,77.5081429 57.9981141,78.1516899 57.521833,78.620411 C57.0455519,79.089132 56.3978764,79.3420053 55.73,79.32 L55.73,79.32 Z" id="Shape" fill="#000"/><path d="M174.87,79.32 C174.184736,79.3556827 173.514929,79.1081289 173.017581,78.6353649 C172.520233,78.1626008 172.239072,77.5061922 172.24,76.82 L173.14,76.82 C173.137237,77.2831497 173.321377,77.7278409 173.650755,78.0534554 C173.980134,78.37907 174.426913,78.5580866 174.89,78.55 C175.33621,78.564183 175.768276,78.3924547 176.083004,78.0758307 C176.397732,77.7592068 176.566863,77.3261167 176.55,76.88 C176.55,75.96 176.12,75.56 174.68,75.12 C174.099107,75.020706 173.556296,74.7648587 173.11,74.38 C172.719307,73.9839626 172.506347,73.4461476 172.52,72.89 C172.52,71.5976537 173.567654,70.55 174.86,70.55 C176.152346,70.55 177.2,71.5976537 177.2,72.89 L176.33,72.89 C176.347166,72.4871578 176.19465,72.0955716 175.909539,71.8104607 C175.624428,71.5253497 175.232842,71.3728341 174.83,71.39 C174.439389,71.3815001 174.062533,71.5343181 173.788162,71.812473 C173.513792,72.090628 173.36615,72.4695419 173.38,72.86 C173.365096,73.2350428 173.510557,73.5986962 173.78,73.86 C174.148664,74.1249231 174.572646,74.3027219 175.02,74.38 C175.572878,74.5079272 176.098019,74.7349234 176.57,75.05 C177.118752,75.4791119 177.430623,76.1436951 177.41,76.84 C177.421582,77.5117471 177.155671,78.1585465 176.67496,78.6279024 C176.194249,79.0972583 175.541278,79.3476346 174.87,79.32 L174.87,79.32 Z" id="Shape" fill="#000"/><path d="M74.56,79.17 L73.48,79.17 L71.62,72.25 L69.78,79.13 L68.69,79.13 L66.25,70.79 L67.11,70.79 L69.18,78.09 L71.18,70.79 L71.98,70.79 L73.98,78.09 L76.05,70.79 L76.91,70.79 L74.56,79.17 Z" id="Shape" fill="#000"/><path d="M80.2,79.17 L80.2,70.78 L84.79,70.78 L84.79,71.54 L81.04,71.54 L81.04,74.54 L84.66,74.54 L84.66,75.3 L81.04,75.3 L81.04,78.4 L84.79,78.4 L84.79,79.16 L80.2,79.17 Z" id="Shape" fill="#000"/><path d="M90.62,79.17 L88.54,79.17 L88.54,70.78 L90.54,70.78 C92.54,70.78 93.42,71.52 93.42,72.96 C93.4864647,73.673914 93.1205085,74.3586062 92.49,74.7 C93.3834489,74.9730639 93.9688241,75.8282929 93.9,76.76 C93.86,78.42 92.94,79.17 90.62,79.17 L90.62,79.17 Z M90.4,71.54 L89.4,71.54 L89.4,74.39 L90.4,74.39 C91.98,74.39 92.52,74.03 92.52,72.97 C92.52,71.91 92.09,71.54 90.39,71.54 L90.4,71.54 Z M90.4,75.15 L89.4,75.15 L89.4,78.41 L90.55,78.41 C92.27,78.41 93.02,78.03 93.02,76.81 C93,75.25 91.87,75.16 90.38,75.16 L90.4,75.15 Z" id="Shape" fill="#000"/><path d="M109.63,79.32 L107.69,77.44 C107.03,78.76 106.27,79.32 105.16,79.32 C104.463851,79.3444963 103.787779,79.0842541 103.287732,78.5993034 C102.787686,78.1143527 102.506848,77.4465728 102.51,76.75 C102.51,75.63 103.12,74.93 104.44,74.25 C103.893907,73.8222085 103.555718,73.1821946 103.51,72.49 C103.526569,71.3854306 104.435431,70.5034316 105.54,70.5200002 C106.644569,70.5365687 107.526568,71.4454306 107.51,72.55 C107.51,73.46 107.14,73.86 105.88,74.5 L107.47,76.07 L108.7,73.71 L109.63,73.71 L108.09,76.71 L110.22,78.77 L109.63,79.32 Z M105.04,74.86 C103.8,75.46 103.34,76.01 103.34,76.86 C103.345255,77.3205925 103.533976,77.760072 103.864345,78.0810547 C104.194713,78.4020375 104.639447,78.5780177 105.1,78.57 C105.91,78.57 106.45,78.09 107.1,76.85 L105.04,74.86 Z M105.52,71.4 C105.2205,71.3836889 104.927147,71.4892796 104.706747,71.6927257 C104.486347,71.8961718 104.357663,72.1801538 104.35,72.48 C104.35,72.91 104.61,73.31 105.27,73.91 C106.27,73.52 106.72,73.08 106.72,72.49 C106.709787,72.1847751 106.576465,71.8966804 106.350405,71.6913428 C106.124346,71.4860051 105.824799,71.3809109 105.52,71.4 L105.52,71.4 Z" id="Shape" fill="#000"/><path d="M126.86,79.17 L126.86,71.7 L123.7,79.17 L122.97,79.17 L119.83,71.7 L119.83,79.17 L118.99,79.17 L118.99,70.78 L120.25,70.78 L123.3,77.92 L126.3,70.78 L127.6,70.78 L127.6,79.17 L126.86,79.17 Z" id="Shape" fill="#000"/><path d="M135.76,79.32 C133.375427,79.2705396 131.477607,77.3061026 131.510411,74.9212419 C131.543215,72.5363812 133.494348,70.6248868 135.87938,70.6410327 C138.264412,70.6571786 140.189487,72.5949138 140.19,74.98 C140.157078,77.3983207 138.178487,79.3367142 135.76,79.32 L135.76,79.32 Z M135.76,71.41 C133.790954,71.4100309 132.193719,73.0043278 132.190062,74.9733707 C132.186406,76.9424135 133.777709,78.5426314 135.746741,78.5499752 C137.715774,78.5573189 139.318969,76.9690154 139.33,75 C139.313875,73.0317861 137.728093,71.4371201 135.76,71.41 L135.76,71.41 Z" id="Shape" fill="#000"/><path d="M145.88,79.17 L143.8,79.17 L143.8,70.78 L145.8,70.78 C147.8,70.78 148.67,71.52 148.67,72.96 C148.736465,73.673914 148.370509,74.3586062 147.74,74.7 C148.633449,74.9730639 149.218824,75.8282929 149.15,76.76 C149.12,78.42 148.25,79.17 145.88,79.17 L145.88,79.17 Z M145.66,71.54 L144.66,71.54 L144.66,74.39 L145.66,74.39 C147.24,74.39 147.78,74.03 147.78,72.97 C147.78,71.91 147.35,71.54 145.66,71.54 L145.66,71.54 Z M145.66,75.15 L144.66,75.15 L144.66,78.41 L145.81,78.41 C147.52,78.41 148.28,78.03 148.28,76.81 C148.25,75.25 147.13,75.16 145.64,75.16 L145.66,75.15 Z" id="Shape" fill="#000"/><path d="M152.58,79.17 L152.58,70.78 L153.42,70.78 L153.42,79.17 L152.58,79.17 Z" id="Shape" fill="#000"/><path d="M157.41,79.17 L157.41,70.78 L158.25,70.78 L158.25,78.4 L161.72,78.4 L161.72,79.16 L157.41,79.17 Z" id="Shape" fill="#000"/><path d="M164.92,79.17 L164.92,70.78 L169.51,70.78 L169.51,71.54 L165.76,71.54 L165.76,74.54 L169.38,74.54 L169.38,75.3 L165.76,75.3 L165.76,78.4 L169.51,78.4 L169.51,79.16 L164.92,79.17 Z" id="Shape" fill="#000"/><path d="M17.68,31.64 L34.45,55.68 L17.46,16.95 L0.9,55.68 L17.68,31.64 L17.68,31.64 Z" id="Shape" fill="#000"/><path d="M25.62,49.94 L9.72,49.94 L7.11,55.68 L0.9,55.68 L14.54,25.25 L20.8,25.25 L34.45,55.67 L28.19,55.67 L25.62,49.94 Z M17.67,31.64 L12.01,44.64 L23.31,44.64 L17.67,31.64 Z" id="Shape" fill="#000"/><path d="M69.52,51.25 C65.9170111,54.7386772 61.0636862,56.6338879 56.05,56.51 C42.89,56.51 37.32,47.45 37.27,38.24 C37.22,29.03 43.27,19.56 56.05,19.56 C60.9335578,19.556611 65.6152047,21.5084976 69.05,24.98 L64.6,29.28 C62.2946329,27.0942511 59.226516,25.8957118 56.05,25.94 C47.5,25.94 43.8,32.32 43.86,38.24 C43.92,44.16 47.3,50.24 56.05,50.24 C59.3694152,50.2247709 62.5572637,48.9403292 64.96,46.65 L69.52,51.25 Z" id="Shape" fill="#000"/><path d="M99.58,28.8 C98.37,26.8 95.02,24.85 91.18,24.85 C86.18,24.85 83.84,26.93 83.84,29.56 C83.84,32.65 87.48,33.56 91.73,34.01 C99.12,34.92 106,36.85 106,45.3 C106,53.2 99,56.59 91.12,56.59 C83.88,56.59 78.32,54.36 75.68,47.88 L81.25,45 C82.82,48.9 86.91,50.62 91.25,50.62 C95.59,50.62 99.4,49.15 99.4,45.3 C99.4,41.96 95.9,40.59 91.2,40.09 C83.94,39.25 77.25,37.3 77.25,29.35 C77.25,22.06 84.43,19.08 90.96,19.02 C96.48,19.02 102.2,20.59 104.88,26.02 L99.58,28.8 Z" id="Shape" fill="#000"/><path d="M140.18,55.68 L113.66,55.68 L113.66,20.25 L140.18,20.25 L140.18,26.73 L120.25,26.73 L120.25,34.88 L139.43,34.88 L139.43,41.11 L120.25,41.11 L120.25,49.11 L140.14,49.11 L140.18,55.68 Z" id="Shape" fill="#000"/><path d="M184.25,38.16 C184.15,47.32 178.53,56.49 166.08,56.49 C153.63,56.49 147.86,47.49 147.86,38.22 C147.86,28.95 153.86,19.54 166.08,19.54 C178.3,19.54 184.4,28.9 184.25,38.16 L184.25,38.16 Z M154.44,38.32 C154.59,44.14 157.73,50.32 166.08,50.32 C174.43,50.32 177.57,44.04 177.67,38.22 C177.77,32.4 174.43,25.56 166.08,25.56 C157.73,25.56 154.34,32.34 154.49,38.31 L154.44,38.32 Z" id="Shape" fill="#000"/><path d="M203.74,3.08 C200.123563,-0.185352586 194.789883,-0.682487667 190.632277,1.8582715 C186.474671,4.39903067 184.483949,9.3721896 185.74,14.08 L185.74,14.08 C186.676251,17.8435432 185.683355,21.826368 183.09,24.71 C182.435746,25.4429064 181.689574,26.0882444 180.87,26.63 C181.397189,27.43142 181.858694,28.2741677 182.25,29.15 C182.748927,27.958484 183.445375,26.8597197 184.31,25.9 C186.899907,23.0176837 190.751603,21.6088923 194.59,22.14 C199.417572,22.93355 204.189073,20.4433553 206.298843,16.0292816 C208.408613,11.615208 207.349551,6.33821263 203.7,3.08 L203.74,3.08 Z" id="Shape" fill="#FDC24E"/><path d="M206.15,26.67 C202.445362,26.7177262 199.013627,28.6271687 197.02,31.75 L197.02,31.75 C194.892127,34.9952091 191.290305,36.9704016 187.41,37.02 C186.3536,37.0363132 185.300096,36.9050459 184.28,36.63 C184.28,37.14 184.33,37.63 184.28,38.18 C184.23,38.73 184.28,38.92 184.23,39.29 C185.255461,38.9806832 186.31902,38.8157641 187.39,38.8 C191.266363,38.7422513 194.917497,40.6165502 197.13,43.8 C200.055609,48.1787933 205.674291,49.8697703 210.530697,47.8330227 C215.387103,45.7962751 218.118676,40.6032517 217.045567,35.4475308 C215.972458,30.2918099 211.395749,26.6199281 206.13,26.69 L206.15,26.67 Z" id="Shape" fill="#D5DD48"/><path d="M205.25,57.78 C202.817911,54.9843789 199.141739,53.6011159 195.47,54.1 L195.47,54.1 C191.617266,54.5577641 187.788437,53.0741865 185.25,50.14 C184.144551,48.8763619 183.33186,47.3841511 182.87,45.77 C182.41927,46.9114359 181.852991,48.0037851 181.18,49.03 C182.202925,49.6435552 183.123977,50.4127859 183.91,51.31 C186.463348,54.2269914 187.396919,58.223725 186.4,61.97 C184.938115,67.0354126 187.275783,72.4257733 191.972823,74.8202106 C196.669862,77.2146479 202.40531,75.939766 205.645693,71.7809889 C208.886077,67.6222119 208.720093,61.7491268 205.25,57.78 L205.25,57.78 Z" id="Shape" fill="#32BDBE"/></g></g></svg>