<?xml version="1.0" encoding="utf-8"?>
<!-- Generator: Adobe Illustrator 17.0.0, SVG Export Plug-In . SVG Version: 6.00 Build 0)  -->
<!DOCTYPE svg PUBLIC "-//W3C//DTD SVG 1.1//EN" "http://www.w3.org/Graphics/SVG/1.1/DTD/svg11.dtd">
<svg version="1.1" id="Calque_1" xmlns="http://www.w3.org/2000/svg" xmlns:xlink="http://www.w3.org/1999/xlink" x="0px" y="0px"
	 width="32.4px" height="57.6px" viewBox="0 0 32.4 57.6" enable-background="new 0 0 32.4 57.6" xml:space="preserve">
<g>
	<path fill="#F9BB44" d="M16.4,38.7c-5.2,0-9.3-4.2-9.3-9.3V9.3c0-5.2,4.2-9.3,9.3-9.3c5.2,0,9.4,4.2,9.4,9.3v20.1
		C25.7,34.6,21.5,38.7,16.4,38.7 M32.4,29.1h-2.8c0,7.4-6,13.4-13.4,13.4s-13.4-6-13.4-13.4H0c0,8.5,6.5,15.4,14.8,16.1v9.6H5.1v2.8
		h22.2v-2.8h-9.7v-9.6C25.9,44.5,32.4,37.6,32.4,29.1"/>
</g>
</svg>
