<?xml version="1.0" encoding="utf-8"?>
<!-- Generator: Adobe Illustrator 17.0.0, SVG Export Plug-In . SVG Version: 6.00 Build 0)  -->
<!DOCTYPE svg PUBLIC "-//W3C//DTD SVG 1.1//EN" "http://www.w3.org/Graphics/SVG/1.1/DTD/svg11.dtd">
<svg version="1.1" id="Calque_1" xmlns="http://www.w3.org/2000/svg" xmlns:xlink="http://www.w3.org/1999/xlink" x="0px" y="0px"
	 width="84.136px" height="84.137px" viewBox="0 0 84.136 84.137" enable-background="new 0 0 84.136 84.137" xml:space="preserve">
<g>
	<path fill="#F9BB44" d="M42.068,0C18.872,0,0,18.872,0,42.068s18.872,42.069,42.068,42.069s42.068-18.872,42.068-42.068
		S65.264,0,42.068,0 M42.068,79.137C21.629,79.137,5,62.508,5,42.069S21.629,5,42.068,5s37.068,16.629,37.068,37.068
		S62.507,79.137,42.068,79.137 M62.713,46.354H21.422c-1.104,0-2,0.896-2,2c0,14.84,11.393,22.604,22.646,22.604
		c11.254,0,22.646-7.765,22.646-22.604C64.713,47.249,63.817,46.354,62.713,46.354 M42.067,66.958
		c-8.498,0-17.609-5.213-18.563-16.604h37.127C59.676,61.746,50.565,66.958,42.067,66.958 M25.568,34.238
		c0.822-0.822,1.914-1.275,3.075-1.275c1.16,0,2.252,0.453,3.074,1.275c0.391,0.391,0.902,0.586,1.414,0.586
		s1.023-0.195,1.414-0.586c0.781-0.78,0.781-2.047,0-2.828c-1.577-1.578-3.674-2.447-5.902-2.447c-2.229,0-4.326,0.869-5.903,2.447
		c-0.781,0.781-0.781,2.048,0,2.828C23.521,35.019,24.789,35.019,25.568,34.238 M52.13,34.238c0.822-0.822,1.914-1.275,3.074-1.275
		c1.161,0,2.253,0.453,3.075,1.275c0.391,0.391,0.902,0.586,1.414,0.586c0.512,0,1.023-0.195,1.414-0.586
		c0.781-0.78,0.781-2.047,0-2.828c-1.577-1.578-3.674-2.447-5.903-2.447s-4.325,0.869-5.902,2.447c-0.781,0.781-0.781,2.048,0,2.828
		C50.083,35.019,51.35,35.019,52.13,34.238"/>
</g>
</svg>
