<?xml version="1.0" encoding="utf-8"?>
<!-- Generator: Adobe Illustrator 17.0.0, SVG Export Plug-In . SVG Version: 6.00 Build 0)  -->
<!DOCTYPE svg PUBLIC "-//W3C//DTD SVG 1.1//EN" "http://www.w3.org/Graphics/SVG/1.1/DTD/svg11.dtd">
<svg version="1.1" id="Calque_1" xmlns="http://www.w3.org/2000/svg" xmlns:xlink="http://www.w3.org/1999/xlink" x="0px" y="0px"
	 width="51.999px" height="42px" viewBox="0 0 51.999 42" enable-background="new 0 0 51.999 42" xml:space="preserve">
<g>
	<path fill="#F9BB44" d="M26.01,0C11.657,0,0.579,8.555,0.022,19.075C-0.475,28.446,7.47,38.318,16.244,42
		c0,0-1.199-3.653-0.13-5.285c3.05,0.923,6.391,1.435,9.896,1.435c14.354,0.001,25.989-8.54,25.989-19.075S40.364,0,26.01,0
		 M26.01,33.151c-2.927,0-5.77-0.411-8.449-1.221c-0.479-0.145-0.966-0.215-1.447-0.215c-1.497,0-2.94,0.675-3.898,1.869
		C7.76,29.643,4.764,24.078,5.015,19.34C5.44,11.299,14.663,5,26.01,5c11.377,0,20.989,6.446,20.989,14.075
		S37.387,33.151,26.01,33.151 M28.999,20c0,1.657-1.343,3-3,3s-3-1.343-3-3c0-1.657,1.343-3,3-3S28.999,18.343,28.999,20 M39,20
		c0,1.657-1.343,3-3,3s-3-1.343-3-3c0-1.657,1.343-3,3-3S39,18.343,39,20 M18.998,20c0,1.657-1.343,3-3,3s-3-1.343-3-3
		c0-1.657,1.343-3,3-3S18.998,18.343,18.998,20"/>
</g>
</svg>
