<?xml version="1.0" encoding="utf-8"?>
<!-- Generator: Adobe Illustrator 17.0.0, SVG Export Plug-In . SVG Version: 6.00 Build 0)  -->
<!DOCTYPE svg PUBLIC "-//W3C//DTD SVG 1.1//EN" "http://www.w3.org/Graphics/SVG/1.1/DTD/svg11.dtd">
<svg version="1.1" id="Calque_1" xmlns="http://www.w3.org/2000/svg" xmlns:xlink="http://www.w3.org/1999/xlink" x="0px" y="0px"
	 width="44.721px" height="100px" viewBox="0 0 44.721 100" enable-background="new 0 0 44.721 100" xml:space="preserve">
<g>
	<path fill="#F9BB44" d="M38.767,69.328c-0.789-1.151-1.867-2.726-1.965-3.22c-0.053-0.682,0.455-1.807,0.992-2.996
		c0.926-2.053,2.076-4.602,2.008-7.917c-0.145-6.74-5.645-10.063-7.324-10.918c-1.613-0.827-4.78-1.183-7.253-1.338V12.88
		c0.773-0.533,2.281-1.622,2.281-2.003V1.562c0,0-1.683-1.562-5.146-1.562c-3.464,0-5.144,1.562-5.144,1.562v9.315
		c0,0.381,1.506,1.47,2.28,2.003v30.06c-2.454,0.154-5.636,0.509-7.253,1.336c-1.682,0.857-7.181,4.181-7.323,10.919
		c-0.069,3.313,1.083,5.866,2.008,7.917c0.537,1.189,1.043,2.314,0.996,2.963c-0.1,0.527-1.18,2.102-1.968,3.25
		C3.584,72.786,0,78.015,0,84.229C-0.001,90.118,2.904,100,22.36,100c19.455,0,22.361-9.882,22.361-15.771
		C44.722,78.015,41.138,72.786,38.767,69.328 M22.36,58.359c2.336,0,4.235,1.898,4.235,4.234c0,2.339-1.899,4.238-4.235,4.238
		s-4.236-1.899-4.236-4.238C18.125,60.258,20.024,58.359,22.36,58.359 M22.36,95.485c-11.843,0-17.847-3.787-17.847-11.256
		c0-4.815,2.985-9.171,5.164-12.352c1.523-2.219,2.622-3.822,2.743-5.429c0.139-1.832-0.598-3.465-1.378-5.194
		c-0.815-1.805-1.658-3.672-1.608-5.965c0.089-4.232,3.744-6.423,4.861-6.995c0.727-0.37,2.915-0.667,5.2-0.828v9.306
		c-2.146,1.06-3.63,3.264-3.63,5.818c0,3.586,2.908,6.495,6.494,6.495c3.587,0,6.494-2.909,6.494-6.495
		c0-2.555-1.48-4.759-3.631-5.818v-9.303c2.312,0.164,4.498,0.467,5.199,0.824c1.119,0.572,4.773,2.762,4.863,6.996
		c0.05,2.294-0.794,4.157-1.609,5.964c-0.778,1.729-1.516,3.361-1.377,5.192c0.121,1.609,1.22,3.214,2.742,5.434
		c2.18,3.179,5.164,7.532,5.164,12.349C40.206,91.698,34.202,95.485,22.36,95.485"/>
	<rect x="13.525" y="79.453" fill="#F9BB44" width="17.669" height="4.516"/>
</g>
</svg>
